<svg width="644" height="148" viewBox="0 0 644 148" fill="none" xmlns="http://www.w3.org/2000/svg">
<path d="M427.438 67.0625H404.691V85.4576H421.247C435.043 85.4576 435.963 98.3341 435.963 98.3341V136.964H458.037V94.8815C458.037 93.5048 457.99 92.1262 457.703 90.7797C456.58 85.503 451.894 71.522 433.416 67.5885C431.458 67.1717 429.44 67.0625 427.438 67.0625Z" fill="white"/>
<path d="M475.147 105.164C475.147 104.158 475.488 103.314 476.17 102.631C476.889 101.912 477.751 101.553 478.757 101.553H499.559C499.775 101.553 499.991 101.571 500.206 101.607H500.53C503.044 101.679 505.11 102.254 506.727 103.332C508.344 104.409 509.511 105.649 510.23 107.05C510.949 108.415 511.308 109.799 511.308 111.2C511.308 112.637 510.949 114.056 510.23 115.457C509.547 116.822 508.38 118.044 506.727 119.122C505.11 120.2 503.044 120.774 500.53 120.846H485.224C484.542 120.882 483.967 121.044 483.5 121.331C483.069 121.619 482.745 121.996 482.53 122.463C482.314 122.894 482.206 123.236 482.206 123.487V124.619C482.206 125.086 482.314 125.445 482.53 125.697C482.781 125.948 483.248 126.056 483.931 126.02H507.428C508.434 126.02 509.278 126.379 509.961 127.098C510.679 127.78 511.038 128.625 511.038 129.631C511.038 130.637 510.679 131.499 509.961 132.218C509.278 132.9 508.434 133.241 507.428 133.241H481.021C479.009 133.241 477.464 132.756 476.386 131.786C475.344 130.78 474.805 129.361 474.769 127.529V123.487C474.769 122.014 475.111 120.577 475.793 119.176C476.512 117.739 477.679 116.481 479.296 115.403C480.949 114.29 483.033 113.697 485.548 113.625H500.853C501.536 113.589 502.092 113.445 502.524 113.194C502.991 112.906 503.332 112.601 503.547 112.278C503.763 111.918 503.871 111.559 503.871 111.2C503.871 110.84 503.763 110.499 503.547 110.176C503.332 109.817 502.991 109.511 502.524 109.26C502.092 108.972 501.536 108.811 500.853 108.775H478.757C477.751 108.775 476.907 108.415 476.224 107.697C475.506 107.014 475.147 106.17 475.147 105.164ZM544.559 101.553C546.391 101.589 548.026 102.164 549.463 103.278C550.9 104.391 552.05 105.721 552.912 107.266C553.811 108.811 554.475 110.445 554.906 112.17C555.337 113.894 555.553 115.655 555.553 117.451C555.553 119.822 555.176 122.158 554.421 124.457C553.703 126.721 552.499 128.733 550.811 130.493C549.158 132.253 547.074 133.206 544.559 133.349H527.475C524.96 133.241 522.859 132.307 521.17 130.547C519.481 128.786 518.278 126.756 517.559 124.457C516.877 122.158 516.535 119.822 516.535 117.451C516.535 115.08 516.895 112.763 517.613 110.499C518.332 108.2 519.517 106.17 521.17 104.409C522.859 102.613 524.96 101.661 527.475 101.553H528.499H543.535H544.559ZM542.727 126.128C544.092 126.056 545.224 125.553 546.122 124.619C547.056 123.649 547.721 122.535 548.116 121.277C548.511 120.02 548.709 118.745 548.709 117.451C548.709 116.158 548.493 114.9 548.062 113.679C547.667 112.421 547.02 111.308 546.122 110.337C545.224 109.367 544.092 108.846 542.727 108.775H529.146C527.781 108.846 526.649 109.367 525.751 110.337C524.853 111.308 524.188 112.421 523.757 113.679C523.362 114.9 523.164 116.158 523.164 117.451C523.164 118.745 523.362 120.02 523.757 121.277C524.152 122.535 524.799 123.649 525.697 124.619C526.631 125.553 527.781 126.056 529.146 126.128H542.727ZM587.673 100.691C588.643 100.727 589.469 101.086 590.152 101.769C590.834 102.415 591.193 103.224 591.229 104.194V118.152H594.301C595.307 118.188 596.134 118.565 596.78 119.283C597.463 120.002 597.804 120.864 597.804 121.87C597.768 122.84 597.409 123.667 596.726 124.349C596.08 124.996 595.271 125.337 594.301 125.373H591.229V130.601C591.014 132.756 589.828 133.924 587.673 134.104C586.667 134.104 585.786 133.78 585.032 133.134C584.313 132.451 583.954 131.607 583.954 130.601V125.373H572.529C570.014 125.23 567.93 124.385 566.278 122.84C564.661 121.26 563.493 119.337 562.775 117.074C562.092 114.81 561.733 112.403 561.697 109.852V104.194C561.733 103.224 562.092 102.415 562.775 101.769C563.457 101.086 564.284 100.727 565.254 100.691C566.26 100.691 567.122 101.032 567.84 101.715C568.559 102.361 568.936 103.188 568.972 104.194V109.206C568.936 110.679 569.026 112.044 569.242 113.302C569.493 114.523 570.068 115.619 570.966 116.589C571.864 117.559 572.996 118.08 574.361 118.152H583.954V104.194C583.99 103.188 584.367 102.361 585.086 101.715C585.804 101.032 586.667 100.691 587.673 100.691ZM630.085 133.241H608.96C607.954 133.206 607.11 132.828 606.427 132.11C605.78 131.391 605.457 130.529 605.457 129.523C605.636 127.367 606.804 126.2 608.96 126.02H628.253C629.618 125.948 630.75 125.427 631.648 124.457C632.546 123.487 633.193 122.391 633.588 121.17C634.019 119.912 634.235 118.637 634.235 117.343C634.235 116.05 634.019 114.81 633.588 113.625C633.193 112.403 632.546 111.308 631.648 110.337C630.75 109.367 629.618 108.846 628.253 108.775H613.918C613.235 108.739 612.66 108.864 612.193 109.152C611.762 109.439 611.439 109.781 611.223 110.176C611.008 110.535 610.9 110.912 610.9 111.308C610.9 111.559 611.008 111.918 611.223 112.385C611.439 112.816 611.762 113.176 612.193 113.463C612.66 113.751 613.235 113.912 613.918 113.948H627.714C628.72 113.948 629.564 114.307 630.247 115.026C630.966 115.709 631.325 116.553 631.325 117.559C631.325 118.565 630.984 119.427 630.301 120.146C629.582 120.828 628.72 121.17 627.714 121.17H614.241C611.726 121.098 609.642 120.523 607.99 119.445C606.373 118.331 605.205 117.074 604.487 115.673C603.804 114.236 603.463 112.781 603.463 111.308C603.463 109.87 603.822 108.451 604.541 107.05C605.259 105.613 606.427 104.355 608.044 103.278C609.66 102.164 611.726 101.607 614.241 101.607H614.565C614.78 101.571 614.996 101.553 615.211 101.553H630.085C632.6 101.697 634.666 102.667 636.283 104.463C637.936 106.224 639.103 108.218 639.786 110.445C640.504 112.673 640.864 114.972 640.864 117.343C640.864 119.715 640.504 122.032 639.786 124.295C639.067 126.559 637.9 128.589 636.283 130.385C634.666 132.146 632.6 133.098 630.085 133.241Z" fill="white"/>
<path d="M445.16 52.3462H402.851H380.777V33.9512H402.851H445.16V52.3462Z" fill="white"/>
<path d="M395.493 85.4556C381.697 84.5359 380.777 73.4988 380.777 73.4988V67.0605H402.851H430.444V85.4556H395.493Z" fill="white"/>
<path d="M396.413 2.67969H452.518V21.0747H402.851L380.777 20.9883V16.476C380.777 16.476 381.697 2.67969 396.413 2.67969Z" fill="white"/>
<path d="M320.074 33H342.149L342.149 85.3025H320.074V33Z" fill="white"/>
<path d="M592.432 33H614.506L614.506 85.3025H592.432V33Z" fill="white"/>
<path d="M290.643 21.0739V0.839355H371.581V21.0739H290.643Z" fill="white"/>
<path d="M563 21.2346V1H643.938V21.2346H563Z" fill="white"/>
<path d="M283.283 68.7516V1.60961H261.209V65.0726L237.295 12.6466C237.295 12.6466 232.696 5.2886 229.937 3.44912C224.419 -1.14969 210.622 -1.14972 204 3.44912C195.906 8.96758 194.986 17.2454 194.986 17.2454V85.3071H217.061V21.8441C217.061 21.8441 233.616 59.554 242.814 77.0294C243.988 79.2611 249.252 83.4676 252.011 84.3874C256.61 86.2269 268.567 85.3071 272.246 83.4676C283.283 77.9491 283.283 68.7516 283.283 68.7516Z" fill="white"/>
<path d="M552 69.4376V2.60226H530V65.7753L506.167 13.5889C506.167 13.5889 501.584 6.26445 498.834 4.43336C493.334 -0.144434 479.584 -0.144473 472.984 4.43336C464.917 9.92662 464 18.1666 464 18.1666V85.9175H486V22.7444C486 22.7444 502.5 60.282 511.667 77.6775C513.5 80.4241 518.084 84.0863 520.834 85.0019C525.417 86.833 537.334 85.9174 541 84.0863C552 78.593 552 69.4376 552 69.4376Z" fill="white"/>
<path fill-rule="evenodd" clip-rule="evenodd" d="M185.79 30.5447C185.79 28.0236 185.556 25.5011 184.713 23.1252C182.737 17.5569 177.668 7.07834 166.532 2.59994C162.948 1.15886 159.014 1 155.152 1H125.087C109.452 2.30289 102.123 13.2954 99.177 19.5979C97.8501 22.4367 97.4941 25.5799 97.4941 28.7136V52.1911C97.4941 57.3016 97.6467 62.5138 99.7553 67.1689C102.788 73.8636 109.7 82.9879 125.087 84.6975H160.957C179.352 82.858 185.79 65.3827 185.79 59.8642V30.5447ZM163.716 32.2716C163.716 25.8333 159.118 19.3951 152.679 19.3951H131.525C124.167 19.3951 119.568 24.9136 119.568 30.163V55.0941C119.568 57.1049 120.488 64.463 128.609 65.3827H152.757C158.198 65.3827 163.716 58.9444 163.716 55.2654V32.2716Z" fill="white"/>
<path fill-rule="evenodd" clip-rule="evenodd" d="M185.79 30.5447C185.79 28.0236 185.556 25.5011 184.713 23.1252C182.737 17.5569 177.668 7.07834 166.532 2.59994C162.948 1.15886 159.014 1 155.152 1H125.087C109.452 2.30289 102.123 13.2954 99.177 19.5979C97.8501 22.4367 97.4941 25.5799 97.4941 28.7136V52.1911C97.4941 57.3016 97.6467 62.5138 99.7553 67.1689C102.788 73.8636 109.7 82.9879 125.087 84.6975H160.957C179.352 82.858 185.79 65.3827 185.79 59.8642V30.5447ZM163.716 32.2716C163.716 25.8333 159.118 19.3951 152.679 19.3951H131.525C124.167 19.3951 119.568 24.9136 119.568 30.163V55.0941C119.568 57.1049 120.488 64.463 128.609 65.3827H152.757C158.198 65.3827 163.716 58.9444 163.716 55.2654V32.2716Z" fill="white"/>
<path d="M86 35.139H65.8723V27.615C65.8723 27.615 65.8723 22.5615 58.5532 22.5615H34.766C21.9574 24.3583 22.8723 35.139 22.8723 35.139V55.8021C22.8723 55.8021 23.7872 63.8877 34.766 65.6845H55.8085C64.7407 65.6845 65.8723 58.4973 65.8723 58.4973V48.615H86V61.1925C86 61.1925 83.2553 83.6524 59.4681 85H27.4468C14.6383 84.5508 0 71.0749 0 60.2941V30.6471C0 30.6471 1.82979 4.59358 29.2766 1H63.1277C83.2553 3.69519 86 21.6631 86 21.6631V35.139Z" fill="white"/>
</svg>
