<svg width="168" height="32" viewBox="0 0 168 32" fill="none" xmlns="http://www.w3.org/2000/svg">
<path d="M56.3938 23.6772C56.297 23.4841 56.2147 23.2619 56.1471 23.0108C56.0793 22.7597 56.0213 22.4941 55.973 22.214C55.7504 22.4555 55.4941 22.6825 55.2039 22.8949C54.9137 23.1074 54.5895 23.2957 54.2317 23.4599C53.8833 23.6145 53.4964 23.7351 53.0707 23.8221C52.6451 23.9187 52.1855 23.9669 51.6922 23.9669C50.8893 23.9669 50.1491 23.851 49.472 23.6193C48.8045 23.3875 48.2289 23.0639 47.7451 22.6486C47.2615 22.2333 46.8842 21.7409 46.6133 21.171C46.3425 20.5915 46.207 19.9637 46.207 19.2877C46.207 17.6363 46.8214 16.3615 48.05 15.4633C49.2882 14.5554 51.1312 14.1016 53.5786 14.1016H55.8277V13.1744C55.8277 12.421 55.5812 11.8271 55.0878 11.3926C54.5943 10.9482 53.8833 10.7262 52.9546 10.7262C52.1323 10.7262 51.5326 10.9048 51.1553 11.2622C50.778 11.6098 50.5894 12.0783 50.5894 12.6673H46.5554C46.5554 12.0009 46.7005 11.3683 46.9907 10.7696C47.2905 10.1707 47.721 9.64451 48.282 9.1905C48.8529 8.73664 49.5446 8.37928 50.3572 8.11852C51.1795 7.8481 52.1179 7.71289 53.1723 7.71289C54.1204 7.71289 55.0006 7.82879 55.8133 8.06057C56.6355 8.29236 57.3467 8.6352 57.9464 9.08906C58.5463 9.54307 59.0154 10.1177 59.354 10.813C59.6925 11.4987 59.8618 12.2955 59.8618 13.2033V19.9251C59.8618 20.7653 59.9151 21.4608 60.0215 22.0113C60.1278 22.5618 60.2827 23.0349 60.4858 23.4309V23.6772H56.3938ZM52.5483 20.8523C52.9546 20.8523 53.3319 20.8041 53.6801 20.7075C54.0284 20.6108 54.3428 20.4853 54.6235 20.3308C54.904 20.1763 55.1457 20.0025 55.349 19.8092C55.552 19.6065 55.7118 19.4036 55.8277 19.2009V16.5064H53.7672C53.1384 16.5064 52.6015 16.5691 52.1565 16.6946C51.7115 16.8105 51.3487 16.9795 51.0682 17.2017C50.7877 17.4141 50.5796 17.6748 50.4442 17.984C50.3087 18.2834 50.2411 18.6117 50.2411 18.969C50.2411 19.5099 50.4297 19.9589 50.807 20.3163C51.194 20.6737 51.7744 20.8523 52.5483 20.8523Z" fill="white"/>
<path d="M75.7111 7.71289C76.3206 7.71289 76.8817 7.75635 77.3944 7.84328C77.9169 7.92053 78.3377 8.00745 78.6568 8.10403L78.062 12.1168C77.5299 11.9913 76.9833 11.8995 76.4222 11.8416C75.8707 11.7739 75.3436 11.7402 74.8405 11.7402C73.7086 11.7402 72.7993 11.9575 72.1123 12.3921C71.4352 12.8267 70.9274 13.4496 70.5887 14.2609V23.6772H66.5547V8.00263H70.313L70.5018 10.5667C71.1401 9.67827 71.9044 8.98294 72.7945 8.4807C73.6844 7.96882 74.6566 7.71289 75.7111 7.71289Z" fill="white"/>
<path d="M92.3248 18.7674L93.6888 8.00391H97.389L94.5739 23.6785H91.0332L88.9727 13.7117L86.9847 23.6785H83.444L80.6289 8.00391H84.3146L85.6787 18.811L87.6522 8.00391H90.3512L92.3248 18.7674Z" fill="white"/>
<path d="M107.75 23.9669C106.541 23.9669 105.443 23.769 104.456 23.373C103.469 22.977 102.623 22.441 101.917 21.765C101.21 21.0793 100.664 20.2777 100.277 19.3602C99.8995 18.433 99.7109 17.4432 99.7109 16.3904V15.8109C99.7109 14.6134 99.8995 13.522 100.277 12.5369C100.654 11.5422 101.181 10.6874 101.859 9.97281C102.536 9.25818 103.339 8.70288 104.267 8.30684C105.196 7.91088 106.207 7.71289 107.3 7.71289C108.432 7.71289 109.438 7.90122 110.318 8.27787C111.208 8.64485 111.958 9.16639 112.568 9.84243C113.187 10.5185 113.656 11.3345 113.975 12.2906C114.294 13.2371 114.454 14.285 114.454 15.4343V17.1437H103.803C103.88 17.6748 104.035 18.1626 104.267 18.6068C104.509 19.0415 104.814 19.4181 105.181 19.7369C105.549 20.0555 105.97 20.3018 106.444 20.4756C106.918 20.6496 107.436 20.7364 107.997 20.7364C108.393 20.7364 108.785 20.6978 109.172 20.6205C109.569 20.5433 109.946 20.4322 110.304 20.2874C110.662 20.1329 110.996 19.9444 111.305 19.7224C111.615 19.5002 111.886 19.2395 112.118 18.9401L114.135 21.1131C113.883 21.4705 113.554 21.8229 113.148 22.1706C112.751 22.5086 112.277 22.8129 111.726 23.0833C111.184 23.3441 110.58 23.5565 109.912 23.7206C109.245 23.8849 108.524 23.9669 107.75 23.9669ZM107.271 10.9723C106.816 10.9723 106.4 11.0545 106.023 11.2186C105.646 11.3731 105.312 11.6001 105.022 11.8995C104.741 12.199 104.504 12.5562 104.311 12.9715C104.117 13.3868 103.972 13.8504 103.876 14.3623H110.493V14.0435C110.473 13.6186 110.391 13.2178 110.246 12.8411C110.101 12.4646 109.893 12.141 109.622 11.8705C109.351 11.5905 109.017 11.3731 108.621 11.2186C108.234 11.0545 107.784 10.9723 107.271 10.9723Z" fill="white"/>
<path d="M127.792 23.6772C127.696 23.4841 127.613 23.2619 127.545 23.0108C127.478 22.7597 127.42 22.4941 127.372 22.214C127.148 22.4555 126.893 22.6825 126.603 22.8949C126.311 23.1074 125.987 23.2957 125.631 23.4599C125.281 23.6145 124.895 23.7351 124.47 23.8221C124.043 23.9187 123.584 23.9669 123.091 23.9669C122.288 23.9669 121.548 23.851 120.87 23.6193C120.203 23.3875 119.627 23.0639 119.144 22.6486C118.66 22.2333 118.283 21.7409 118.012 21.171C117.741 20.5915 117.605 19.9637 117.605 19.2877C117.605 17.6363 118.22 16.3615 119.448 15.4633C120.687 14.5554 122.53 14.1016 124.977 14.1016H127.227V13.1744C127.227 12.421 126.979 11.8271 126.486 11.3926C125.993 10.9482 125.281 10.7262 124.353 10.7262C123.53 10.7262 122.93 10.9048 122.554 11.2622C122.176 11.6098 121.988 12.0783 121.988 12.6673H117.954C117.954 12.0009 118.099 11.3683 118.389 10.7696C118.689 10.1707 119.119 9.64451 119.68 9.1905C120.252 8.73664 120.942 8.37928 121.755 8.11852C122.578 7.8481 123.516 7.71289 124.57 7.71289C125.518 7.71289 126.399 7.82879 127.212 8.06057C128.034 8.29236 128.744 8.6352 129.344 9.08906C129.945 9.54307 130.414 10.1177 130.752 10.813C131.091 11.4987 131.26 12.2955 131.26 13.2033V19.9251C131.26 20.7653 131.314 21.4608 131.42 22.0113C131.527 22.5618 131.68 23.0349 131.884 23.4309V23.6772H127.792ZM123.947 20.8523C124.353 20.8523 124.73 20.8041 125.079 20.7075C125.427 20.6108 125.742 20.4853 126.021 20.3308C126.303 20.1763 126.544 20.0025 126.748 19.8092C126.951 19.6065 127.11 19.4036 127.227 19.2009V16.5064H125.166C124.536 16.5064 124.001 16.5691 123.554 16.6946C123.11 16.8105 122.747 16.9795 122.467 17.2017C122.186 17.4141 121.978 17.6748 121.843 17.984C121.707 18.2834 121.64 18.6117 121.64 18.969C121.64 19.5099 121.828 19.9589 122.206 20.3163C122.592 20.6737 123.173 20.8523 123.947 20.8523Z" fill="white"/>
<path d="M142.505 19.0282L142.708 20.1582L142.912 19.0718L146.365 8.00391H150.573L144.608 23.6785H140.821L134.828 8.00391H139.036L142.505 19.0282Z" fill="white"/>
<path d="M161.297 23.9669C160.088 23.9669 158.989 23.769 158.003 23.373C157.015 22.977 156.17 22.441 155.463 21.765C154.757 21.0793 154.21 20.2777 153.823 19.3602C153.447 18.433 153.258 17.4432 153.258 16.3904V15.8109C153.258 14.6134 153.447 13.522 153.823 12.5369C154.201 11.5422 154.729 10.6874 155.405 9.97281C156.083 9.25818 156.886 8.70288 157.814 8.30684C158.743 7.91088 159.754 7.71289 160.847 7.71289C161.979 7.71289 162.984 7.90122 163.865 8.27787C164.755 8.64485 165.505 9.16639 166.115 9.84243C166.733 10.5185 167.202 11.3345 167.522 12.2906C167.842 13.2371 168.001 14.285 168.001 15.4343V17.1437H157.349C157.427 17.6748 157.582 18.1626 157.814 18.6068C158.056 19.0415 158.361 19.4181 158.728 19.7369C159.096 20.0555 159.517 20.3018 159.991 20.4756C160.464 20.6496 160.982 20.7364 161.543 20.7364C161.94 20.7364 162.332 20.6978 162.718 20.6205C163.115 20.5433 163.493 20.4322 163.851 20.2874C164.209 20.1329 164.542 19.9444 164.852 19.7224C165.161 19.5002 165.433 19.2395 165.664 18.9401L167.681 21.1131C167.429 21.4705 167.101 21.8229 166.695 22.1706C166.298 22.5086 165.824 22.8129 165.272 23.0833C164.731 23.3441 164.127 23.5565 163.459 23.7206C162.791 23.8849 162.07 23.9669 161.297 23.9669ZM160.818 10.9723C160.364 10.9723 159.947 11.0545 159.571 11.2186C159.193 11.3731 158.859 11.6001 158.569 11.8995C158.289 12.199 158.051 12.5562 157.858 12.9715C157.665 13.3868 157.518 13.8504 157.422 14.3623H164.039V14.0435C164.02 13.6186 163.938 13.2178 163.793 12.8411C163.648 12.4646 163.439 12.141 163.169 11.8705C162.897 11.5905 162.563 11.3731 162.167 11.2186C161.78 11.0545 161.33 10.9723 160.818 10.9723Z" fill="white"/>
<path d="M16.0718 31.1024C24.3958 31.1024 31.1436 24.3638 31.1436 16.0512C31.1436 7.73866 24.3958 1 16.0718 1C7.74788 1 1 7.73866 1 16.0512C1 24.3638 7.74788 31.1024 16.0718 31.1024Z" stroke="white" stroke-width="1.04645"/>
<path d="M18.9436 21.4773C18.8411 21.3749 18.8411 21.1701 18.7386 20.9653C18.7386 20.7606 18.636 20.5558 18.636 20.351C18.431 20.5558 18.2259 20.6582 18.0208 20.863C17.8158 21.0677 17.5082 21.1701 17.3031 21.2725C16.9956 21.3749 16.7905 21.4773 16.3804 21.5797C16.0728 21.6821 15.6627 21.6821 15.3551 21.6821C14.7399 21.6821 14.2273 21.5797 13.7146 21.3749C13.202 21.1701 12.7918 20.9653 12.3817 20.6582C11.9716 20.351 11.7666 19.9415 11.5615 19.5319C11.3564 19.1223 11.2539 18.6104 11.2539 18.0984C11.2539 16.8698 11.7666 15.8459 12.6893 15.2315C13.6121 14.5148 15.0475 14.2077 16.893 14.2077H18.636V13.4909C18.636 12.8766 18.431 12.467 18.1234 12.1599C17.7133 11.8527 17.2006 11.6479 16.4829 11.6479C15.8677 11.6479 15.4576 11.7503 15.15 12.0575C14.8424 12.3646 14.7399 12.6718 14.7399 13.0814H11.664C11.664 12.5694 11.7666 12.0575 11.9716 11.6479C12.1767 11.2384 12.4843 10.8288 12.9969 10.4193C13.407 10.1121 13.9197 9.80492 14.5348 9.60014C15.15 9.39536 15.8677 9.29297 16.688 9.29297C17.4057 9.29297 18.0208 9.39536 18.636 9.60014C19.2512 9.80492 19.7638 10.0097 20.2765 10.4193C20.6866 10.7264 21.0967 11.2384 21.3018 11.7503C21.5068 12.2623 21.7119 12.8766 21.7119 13.5933V18.7128C21.7119 19.3271 21.7119 19.8391 21.8144 20.2486C21.917 20.6582 22.0195 21.0677 22.122 21.2725V21.4773H18.9436ZM15.9703 19.3271C16.2778 19.3271 16.5854 19.3271 16.7905 19.2247C17.0981 19.1223 17.3031 19.0199 17.5082 18.9176C17.7133 18.8152 17.9183 18.7128 18.0208 18.508L18.431 18.0984V16.0507H16.893C16.3804 16.0507 15.9703 16.0507 15.6627 16.153C15.3551 16.2554 15.0475 16.3578 14.8424 16.5626C14.6374 16.7674 14.4323 16.8698 14.3298 17.1769C14.2273 17.3817 14.2273 17.6889 14.2273 17.8937C14.2273 18.3032 14.3298 18.6104 14.6374 18.9176C14.945 19.2247 15.4576 19.3271 15.9703 19.3271V19.3271Z" fill="white"/>
</svg>
