<svg width="102" height="32" viewBox="0 0 102 32" fill="none" xmlns="http://www.w3.org/2000/svg">
<path d="M94.707 12.0386C95.523 9.79459 98.974 8.72359 101.048 8.72359H102V13.7046C100.81 13.7046 99.603 13.6366 98.464 14.0276C97.665 14.2826 96.968 14.7586 96.441 15.4046C95.472 16.7136 95.557 17.5126 95.472 18.7366C95.404 19.9266 95.438 20.7426 95.438 21.9326V30.7726H89.981V8.96159H94.707V12.0386ZM28.424 25.6216C24.514 29.4466 21.148 31.2996 15.606 31.2996C6.375 31.2996 0 24.8566 0 15.7616C0 6.42859 7.225 0.308594 15.708 0.308594C20.655 0.308594 25.347 2.4676 28.56 6.2246L24.616 9.99859C21.947 7.15959 19.023 5.68059 15.572 5.68059C10.03 5.68059 5.508 9.9476 5.508 15.7446C5.508 21.8306 9.86 25.8936 15.691 25.8936C19.346 25.8936 21.811 24.4146 24.599 21.6266L28.424 25.6216ZM51.816 26.4376C49.47 29.7696 46.393 31.2486 41.786 31.2486C34.85 31.2486 30.362 26.1486 30.362 19.7396C30.362 13.7726 34.68 8.2646 41.701 8.2646C48.603 8.2646 53.278 13.1946 53.278 20.0966C53.278 20.5896 53.244 20.8276 53.244 21.3376H35.683C36.21 24.5846 38.692 26.3866 41.803 26.3866C44.149 26.3866 45.713 25.7236 47.226 24.2446L51.816 26.4376ZM47.787 17.0196C47.056 14.4866 44.71 12.9056 41.786 12.9056C39.083 12.9056 36.975 14.2656 35.904 17.0196H47.787ZM56.066 0.427596H61.523V30.6876H56.066V0.427596ZM85.748 26.4376C83.402 29.7696 80.325 31.2486 75.718 31.2486C68.782 31.2486 64.294 26.1486 64.294 19.7396C64.294 13.7726 68.612 8.2646 75.633 8.2646C82.535 8.2646 87.227 13.1946 87.227 20.0966C87.227 20.5896 87.193 20.8276 87.193 21.3376H69.598C70.125 24.5846 72.607 26.3866 75.718 26.3866C78.064 26.3866 79.628 25.7236 81.141 24.2446L85.748 26.4376ZM81.719 17.0196C80.988 14.4866 78.642 12.9056 75.718 12.9056C73.015 12.9056 70.907 14.2656 69.836 17.0196H81.719Z" fill="white"/>
</svg>
