<svg width="193" height="31" viewBox="0 0 193 31" fill="none" xmlns="http://www.w3.org/2000/svg">
<g clip-path="url(#clip0_1008_82)">
<path fill-rule="evenodd" clip-rule="evenodd" d="M24.0607 16.3405L34.2798 26.9194C34.4025 27.0445 34.5002 27.1935 34.5672 27.3579C34.6343 27.5221 34.6694 27.6985 34.6707 27.8768C34.6718 28.0551 34.6391 28.232 34.5742 28.3972C34.5093 28.5625 34.4138 28.7129 34.2927 28.8399L33.5429 29.6134C33.3321 29.842 33.0539 29.9912 32.7519 30.0375C32.5525 30.0651 32.3497 30.0445 32.1592 29.9774C31.9688 29.9103 31.796 29.7985 31.6542 29.6507L19.1754 16.7326C18.9585 16.5084 18.7864 16.2421 18.6689 15.9489C18.5515 15.6558 18.491 15.3416 18.491 15.0242C18.491 14.7069 18.5515 14.3926 18.6689 14.0994C18.7864 13.8063 18.9585 13.5399 19.1754 13.3157L31.6542 0.397648C31.7758 0.27159 31.9201 0.171581 32.0791 0.103348C32.2381 0.0351144 32.4084 0 32.5805 0C32.7526 0 32.9229 0.0351144 33.0819 0.103348C33.2408 0.171581 33.3853 0.27159 33.5069 0.397648L34.2798 1.2112C34.4016 1.33705 34.4982 1.48652 34.5641 1.65105C34.63 1.81559 34.664 1.99197 34.664 2.17011C34.664 2.34823 34.63 2.52461 34.5641 2.68915C34.4982 2.8537 34.4016 3.00318 34.2798 3.12904L24.0607 13.7105C23.7256 14.0602 23.5376 14.5329 23.5376 15.0255C23.5376 15.5182 23.7256 15.9908 24.0607 16.3405ZM10.6094 13.7217L0.394348 3.14014C0.270395 3.01479 0.171711 2.86522 0.10402 2.70007C0.0363284 2.53493 0.000978449 2.35751 2.00248e-05 2.17811C-0.0009384 1.9987 0.0325162 1.82088 0.0984388 1.65496C0.164361 1.48905 0.261446 1.33835 0.38405 1.2116L1.13099 0.435383C1.3437 0.208213 1.62227 0.0592868 1.92429 0.0112751C2.12357 -0.0154609 2.32611 0.00550213 2.51633 0.0725551C2.70655 0.139608 2.87939 0.25095 3.02152 0.398036L15.4955 13.3163C15.7124 13.5405 15.8844 13.8069 16.0018 14.1C16.1192 14.3932 16.1796 14.7074 16.1796 15.0248C16.1796 15.3422 16.1192 15.6564 16.0018 15.9495C15.8844 16.2427 15.7124 16.509 15.4955 16.7332L3.02152 29.6514C2.89977 29.7776 2.75522 29.8777 2.59613 29.9459C2.43702 30.0142 2.2665 30.0494 2.09428 30.0494C1.92207 30.0494 1.75154 30.0142 1.59245 29.9459C1.43334 29.8777 1.28879 29.7776 1.16705 29.6514L0.394348 28.8513C0.272545 28.7252 0.175924 28.5754 0.110001 28.4107C0.0440791 28.2459 0.0101519 28.0693 0.0101519 27.891C0.0101519 27.7127 0.0440791 27.5361 0.110001 27.3713C0.175924 27.2065 0.272545 27.0568 0.394348 26.9307L10.6094 16.3518C10.9444 16.0021 11.1324 15.5294 11.1324 15.0367C11.1324 14.5441 10.9444 14.0714 10.6094 13.7217Z" fill="white"/>
<path fill-rule="evenodd" clip-rule="evenodd" d="M87.0245 13.0243C86.2589 12.5244 85.3618 12.2636 84.4474 12.2754C83.7014 12.2635 82.9652 12.4457 82.3108 12.8041C81.8935 13.025 81.5202 13.3207 81.2094 13.6762V7.20898H78.7865V23.069H81.2094V21.9166C81.5167 22.2652 81.8819 22.5583 82.2888 22.7828C82.9549 23.1288 83.6969 23.303 84.4474 23.2893C85.3587 23.3018 86.254 23.0493 87.0245 22.5625C87.7976 22.0832 88.4286 21.4065 88.8528 20.602C89.3134 19.7422 89.5483 18.7797 89.5356 17.8044C89.5518 16.8287 89.3167 15.8654 88.8528 15.0069C88.4335 14.193 87.8018 13.508 87.0245 13.0243ZM86.6501 19.4565C86.4108 19.9291 86.0447 20.3257 85.5928 20.602C85.1255 20.8747 84.5919 21.0134 84.0509 21.0025C83.5031 21.0116 82.963 20.8734 82.487 20.602C82.0347 20.3262 81.6685 19.9295 81.4297 19.4565C81.1716 18.9369 81.0432 18.3625 81.0553 17.7824C81.0432 17.2024 81.1716 16.628 81.4297 16.1082C81.665 15.6386 82.0325 15.2481 82.487 14.9848C82.9586 14.7011 83.5007 14.5559 84.0509 14.5663C84.5946 14.5542 85.13 14.6995 85.5928 14.9848C86.0469 15.2487 86.4143 15.639 86.6501 16.1082C86.9234 16.6233 87.0611 17.1995 87.0506 17.7824C87.0611 18.3654 86.9234 18.9414 86.6501 19.4565ZM60.7386 20.8663C61.6784 20.8663 62.4714 20.7268 63.1176 20.4477C63.7513 20.1716 64.3202 19.7657 64.7876 19.2562L66.5057 20.9744C65.7953 21.6976 64.9496 22.274 64.0166 22.6705C63.0621 23.0818 61.9681 23.2874 60.7347 23.2874C59.6709 23.2972 58.6157 23.095 57.6308 22.6926C56.7016 22.2947 55.8607 21.7158 55.1573 20.9897C54.454 20.2636 53.902 19.4048 53.5338 18.4633C53.1486 17.4741 52.9543 16.4209 52.9612 15.3593C52.9533 14.304 53.1484 13.257 53.5359 12.2754C53.9019 11.3297 54.4557 10.468 55.1638 9.74218C55.8871 8.99798 56.7545 8.40906 57.713 8.01138C58.6715 7.6137 59.701 7.41563 60.7386 7.42925C61.9874 7.42858 63.0662 7.63551 63.9745 8.05003C64.8777 8.45474 65.6994 9.0207 66.3995 9.72015L64.6815 11.4383C64.2154 10.9316 63.644 10.5331 63.0075 10.2709C62.3626 9.99183 61.6064 9.85231 60.7386 9.85231C60.0214 9.84465 59.3098 9.98083 58.6461 10.2528C58.0207 10.5117 57.4575 10.9008 56.9941 11.3943C56.5282 11.8969 56.1691 12.489 55.9388 13.1345C55.6828 13.8479 55.556 14.6014 55.5644 15.3593C55.5558 16.1158 55.682 16.8678 55.9368 17.5801C56.171 18.2309 56.5302 18.8294 56.9941 19.3423C57.4621 19.8259 58.0244 20.2082 58.6461 20.4657C59.3098 20.7378 60.0214 20.8739 60.7386 20.8663ZM69.2078 12.4955L71.9162 19.3843L74.7807 12.4955H77.468L72.556 23.1791L70.5956 27.4745H67.9083L70.5625 22.0055L66.5426 12.4955H69.2078ZM96.3389 12.2736C97.3254 12.273 98.1931 12.5006 98.9421 12.9565C99.6948 13.4039 100.31 14.0504 100.718 14.8249C101.168 15.656 101.396 16.5892 101.379 17.5343C101.379 17.7188 101.364 17.9029 101.335 18.085C101.317 18.2847 101.288 18.4834 101.247 18.6798H93.3602C93.4232 18.9478 93.5197 19.2069 93.6476 19.4508C93.902 19.9397 94.2921 20.3451 94.771 20.6182C95.2861 20.8913 95.8621 21.0292 96.445 21.0188C96.9597 21.0252 97.4705 20.9279 97.9468 20.7324C98.4038 20.551 98.8114 20.2642 99.1363 19.8953L100.678 21.4592C100.171 22.0565 99.5294 22.5246 98.8058 22.8249C98.0665 23.1345 97.2725 23.2919 96.471 23.2876C95.4722 23.3031 94.4863 23.0616 93.6075 22.5866C92.7604 22.1072 92.059 21.4072 91.5782 20.561C91.0972 19.7146 90.8546 18.7537 90.8762 17.7806C90.865 17.058 90.9983 16.3405 91.2683 15.6702C91.5383 14.9999 91.9395 14.3902 92.4484 13.8772C92.9574 13.3641 93.5636 12.958 94.2317 12.6826C94.8998 12.4073 95.6163 12.2681 96.3389 12.2736ZM94.6929 14.8949C94.2388 15.1588 93.8714 15.5492 93.6356 16.0184L93.6335 16.0204C93.5212 16.2348 93.4351 16.4621 93.3772 16.6972H99.0031C98.9466 16.4073 98.8528 16.1259 98.7238 15.8602C98.5175 15.4345 98.1873 15.0813 97.7766 14.8468C97.3808 14.6119 96.8889 14.4945 96.3009 14.4945C95.7386 14.4819 95.1834 14.6202 94.6929 14.8949ZM109.938 12.5617C109.486 12.3653 108.998 12.2678 108.506 12.2753C107.304 12.2753 106.401 12.6939 105.797 13.5309C105.787 13.5441 105.778 13.5576 105.769 13.5712L105.753 13.596V12.4947H103.33V23.069H105.753V17.1876C105.753 16.2771 105.973 15.6095 106.413 15.185C106.854 14.7605 107.412 14.5475 108.087 14.5462C108.365 14.541 108.641 14.5858 108.902 14.6783C109.147 14.7729 109.366 14.9238 109.541 15.1189L111.132 13.4869C110.807 13.0939 110.399 12.7779 109.938 12.5617ZM120.022 20.8663C120.962 20.8663 121.755 20.7267 122.401 20.4477C123.036 20.1718 123.605 19.7659 124.072 19.2562L125.791 20.9744C125.08 21.6976 124.235 22.2739 123.301 22.6705C122.347 23.0818 121.254 23.2874 120.019 23.2874C118.956 23.2972 117.901 23.0949 116.916 22.6926C115.987 22.2947 115.146 21.7158 114.443 20.9896C113.739 20.2636 113.187 19.4048 112.819 18.4632C112.434 17.4741 112.24 16.4209 112.246 15.3593C112.238 14.3041 112.432 13.2571 112.819 12.2753C113.186 11.3295 113.74 10.4678 114.449 9.74216C115.172 8.9982 116.039 8.40942 116.997 8.01175C117.955 7.61408 118.985 7.41587 120.022 7.42922C121.27 7.42855 122.349 7.63548 123.26 8.05001C124.162 8.45492 124.983 9.02087 125.683 9.72013L123.965 11.4383C123.499 10.9315 122.927 10.533 122.29 10.2708C121.645 9.9918 120.89 9.85229 120.022 9.85229C119.305 9.84463 118.593 9.98081 117.93 10.2528C117.303 10.5117 116.741 10.9008 116.277 11.3942C115.81 11.8968 115.451 12.4888 115.22 13.1345C114.964 13.8479 114.837 14.6014 114.846 15.3593C114.838 16.1158 114.964 16.8679 115.22 17.5801C115.454 18.2307 115.814 18.8294 116.277 19.3423C116.745 19.8259 117.308 20.2082 117.93 20.4657C118.593 20.7378 119.305 20.8739 120.022 20.8663ZM135.087 13.0024C134.23 12.5124 133.255 12.2613 132.267 12.2755C131.284 12.2634 130.316 12.5225 129.471 13.0245C128.647 13.4967 127.958 14.1715 127.468 14.985C126.977 15.8273 126.725 16.7876 126.738 17.7624C126.727 18.7432 126.978 19.7093 127.465 20.56C127.954 21.3855 128.643 22.0743 129.468 22.5625C130.098 22.9341 130.795 23.1771 131.518 23.2774C132.243 23.3779 132.979 23.3336 133.686 23.1474C134.393 22.9612 135.056 22.6366 135.636 22.1924C136.216 21.7484 136.703 21.1935 137.068 20.56C137.57 19.714 137.83 18.7462 137.818 17.7624C137.832 16.7856 137.573 15.8244 137.069 14.9869C136.597 14.1609 135.912 13.4759 135.087 13.0024ZM134.933 19.4105C134.69 19.8876 134.315 20.2851 133.854 20.556C133.37 20.8289 132.823 20.9672 132.267 20.9565C131.714 20.9637 131.166 20.8256 130.682 20.556C130.226 20.2769 129.854 19.8815 129.602 19.4105C129.346 18.8982 129.217 18.3313 129.228 17.7584C129.216 17.1924 129.345 16.6322 129.602 16.1283C129.855 15.67 130.229 15.2891 130.682 15.027C131.162 14.7449 131.71 14.6001 132.267 14.6084C132.825 14.5965 133.374 14.7416 133.854 15.027C134.307 15.2895 134.679 15.6702 134.933 16.1283C135.206 16.6276 135.344 17.1895 135.333 17.7584C135.343 18.3349 135.205 18.9042 134.933 19.4125V19.4105ZM145.406 12.2754C146.156 12.2629 146.894 12.4779 147.52 12.8922C148.131 13.2814 148.634 13.8204 148.979 14.4582C149.321 15.0623 149.5 15.7446 149.499 16.4388V23.0692H147.076V16.9674C147.076 16.2632 146.85 15.6831 146.397 15.2272C145.956 14.7719 145.384 14.5443 144.679 14.5443C144.241 14.5366 143.808 14.643 143.423 14.8527C143.063 15.0529 142.764 15.3505 142.564 15.7118C142.354 16.0965 142.248 16.5293 142.256 16.9674V23.0692H139.834V12.4957H142.256V13.6923C142.546 13.3436 142.897 13.0501 143.291 12.8261C143.934 12.456 144.664 12.2657 145.406 12.2754ZM159.652 12.8922C159.026 12.4779 158.289 12.2629 157.538 12.2754C156.796 12.2657 156.065 12.456 155.423 12.8261C155.027 13.0499 154.676 13.3432 154.385 13.6923V12.4957H151.961V23.0692H154.385V16.9674C154.377 16.5293 154.483 16.0965 154.693 15.7118C154.893 15.3505 155.19 15.0529 155.552 14.8527C155.937 14.643 156.369 14.5366 156.807 14.5443C157.512 14.5443 158.085 14.7719 158.526 15.2272C158.982 15.6824 159.209 16.2625 159.209 16.9674V23.0692H161.631V16.4388C161.63 15.7432 161.448 15.0601 161.103 14.4562C160.76 13.8201 160.26 13.2817 159.652 12.8922ZM168.874 12.2736C169.86 12.273 170.727 12.5006 171.476 12.9565C172.229 13.4045 172.844 14.0509 173.253 14.8249C173.703 15.656 173.931 16.5892 173.914 17.5343C173.913 17.7188 173.898 17.9027 173.87 18.085C173.851 18.2847 173.822 18.4833 173.782 18.6798H165.894C165.958 18.9478 166.054 19.2069 166.182 19.4508C166.436 19.9397 166.827 20.3451 167.305 20.6182C167.821 20.8914 168.396 21.0293 168.98 21.0188C169.494 21.0251 170.005 20.9277 170.481 20.7324C170.938 20.5506 171.346 20.2638 171.67 19.8953L173.212 21.4592C172.705 22.056 172.063 22.5241 171.34 22.8249C170.601 23.1343 169.808 23.2916 169.005 23.2876C168.007 23.3032 167.021 23.0619 166.142 22.5866C165.295 22.1072 164.594 21.4072 164.112 20.561C163.632 19.7146 163.389 18.7537 163.411 17.7806C163.399 17.058 163.533 16.3405 163.803 15.6702C164.073 14.9999 164.474 14.3902 164.983 13.8772C165.492 13.3641 166.098 12.958 166.767 12.6826C167.435 12.4073 168.151 12.2681 168.874 12.2736ZM167.228 14.8949C166.773 15.1582 166.405 15.5487 166.171 16.0184L166.168 16.0204C166.056 16.2347 165.969 16.462 165.913 16.6972H171.536C171.481 16.4072 171.387 16.1258 171.258 15.8602C171.052 15.4348 170.722 15.0817 170.311 14.8468C169.914 14.6119 169.423 14.4945 168.836 14.4945C168.273 14.4817 167.718 14.6201 167.228 14.8949ZM179.124 15.029C179.611 14.7449 180.167 14.6001 180.732 14.6104C181.216 14.6044 181.697 14.702 182.141 14.8968C182.578 15.07 182.965 15.3503 183.264 15.7118L184.851 14.1038C184.354 13.5174 183.727 13.0557 183.019 12.7561C182.301 12.4298 181.518 12.2644 180.729 12.2715C179.734 12.259 178.754 12.5098 177.887 12.9983C177.062 13.4713 176.378 14.1556 175.905 14.9809C175.413 15.8301 175.162 16.7973 175.178 17.7784C175.165 18.7592 175.416 19.7254 175.905 20.576C176.378 21.4013 177.062 22.0856 177.887 22.5586C178.667 22.9863 179.535 23.2322 180.424 23.278C181.312 23.3238 182.2 23.1682 183.019 22.8229C183.724 22.5108 184.348 22.044 184.848 21.4571L183.262 19.849C182.958 20.2125 182.573 20.4992 182.139 20.6861C181.69 20.8664 181.212 20.9563 180.729 20.9504C180.167 20.9596 179.612 20.8215 179.121 20.55C178.669 20.2753 178.298 19.8881 178.042 19.4265C177.785 18.9141 177.657 18.3472 177.667 17.7745C177.653 17.2012 177.782 16.6335 178.042 16.1223C178.296 15.6665 178.671 15.2886 179.124 15.029ZM190.456 12.4959H192.988V14.6987H190.456V23.0693H188.033V14.6987H185.499V12.4959H188.033V8.09032H190.456V12.4959Z" fill="white"/>
</g>
<defs>
<clipPath id="clip0_1008_82">
<rect width="193" height="30.0494" fill="white"/>
</clipPath>
</defs>
</svg>
