<svg width="123" height="31" viewBox="0 0 123 31" fill="none" xmlns="http://www.w3.org/2000/svg">
<path d="M37.9758 9.86642C37.6145 10.5168 37.1086 11.0227 36.4221 11.384C35.7355 11.7454 34.9406 11.9261 34.0372 11.9261H30.7852V3.32617H34.0372C34.9767 3.32617 35.7716 3.50684 36.4221 3.86818C37.1086 4.22952 37.6145 4.7354 37.9758 5.38581C38.3372 6.03622 38.5178 6.79503 38.5178 7.62611C38.5178 8.4572 38.3372 9.21601 37.9758 9.86642ZM35.7355 9.43281C36.1691 8.99921 36.4221 8.38493 36.4221 7.62611C36.4221 6.8673 36.2053 6.25302 35.7355 5.81941C35.3019 5.38581 34.6515 5.169 33.8565 5.169H32.8809V10.0832H33.8565C34.6515 10.0832 35.2658 9.86642 35.7355 9.43281Z" fill="white"/>
<path d="M42.709 3.32617V11.9622H40.6133V3.3623H42.709V3.32617Z" fill="white"/>
<path d="M51.7424 4.04931C52.429 4.59132 52.8626 5.27787 53.0432 6.18122H50.8391C50.6945 5.85601 50.4777 5.63921 50.1525 5.45854C49.8634 5.27787 49.5021 5.16946 49.0685 5.16946C48.4181 5.16946 47.8761 5.38627 47.4786 5.81988C47.0811 6.25348 46.8643 6.86776 46.8643 7.62658C46.8643 8.45766 47.0811 9.07193 47.4786 9.50554C47.9122 9.93915 48.4904 10.156 49.2492 10.156C49.755 10.156 50.1887 10.0114 50.55 9.75848C50.9113 9.46941 51.2004 9.10807 51.3449 8.60219H48.7072V7.1207H53.0794V9.18034C52.9348 9.68621 52.6458 10.156 52.2844 10.5896C51.9231 11.0232 51.4533 11.3845 50.9113 11.6374C50.3693 11.8904 49.7189 12.0349 48.9962 12.0349C48.129 12.0349 47.3702 11.8543 46.7198 11.4929C46.0694 11.1316 45.5635 10.5896 45.2022 9.93915C44.8408 9.28874 44.6602 8.52993 44.6602 7.66271C44.6602 6.7955 44.8408 6.03668 45.2022 5.38627C45.5635 4.73586 46.0694 4.19385 46.6837 3.83251C47.3341 3.47117 48.0929 3.2905 48.9601 3.2905C50.1525 3.25436 51.0559 3.5073 51.7424 4.04931Z" fill="white"/>
<path d="M57.3419 3.32617V11.9622H55.2461V3.3623H57.3419V3.32617Z" fill="white"/>
<path d="M65.8703 3.32617V4.98833H63.5216V11.9622H61.4259V4.98833H59.1133V3.32617H65.8703Z" fill="white"/>
<path d="M72.9895 10.3723H69.7735L69.2315 11.9622H67.0273L70.171 3.39844H72.5558L75.6995 11.9622H73.4953L72.9895 10.3723ZM72.4836 8.7824L71.3995 5.60261L70.3155 8.7824H72.4836Z" fill="white"/>
<path d="M79.5645 10.3362H82.3468V11.9261H77.4688V3.32617H79.5645V10.3362Z" fill="white"/>
<path d="M35.1945 22.4065L33.3155 19.1545H32.8458V22.4065H30.75V13.8066H34.2911C34.9777 13.8066 35.5558 13.915 36.0256 14.168C36.4953 14.4209 36.8566 14.71 37.0734 15.1436C37.3264 15.5411 37.4348 16.0108 37.4348 16.5528C37.4348 17.1671 37.2541 17.7091 36.9289 18.1427C36.5676 18.5763 36.0978 18.8654 35.4113 19.0461L37.4709 22.4427H35.1945V22.4065ZM32.8458 17.7452H34.1466C34.5441 17.7452 34.8693 17.6368 35.0499 17.4562C35.2306 17.2755 35.339 16.9864 35.339 16.6612C35.339 16.336 35.2306 16.0469 35.0499 15.8663C34.8331 15.6856 34.5441 15.5772 34.1466 15.5772H32.8458V17.7452Z" fill="white"/>
<path d="M41.5167 15.4678V17.2745H44.4435V18.8644H41.5167V20.7795H44.8049V22.4417H39.457V13.8418H44.8049V15.504H41.5167V15.4678Z" fill="white"/>
<path d="M54.5266 22.4065H52.4308L48.962 17.131V22.4065H46.9023V13.8066H48.9981L52.467 19.1545V13.8066H54.5627V22.4065H54.5266Z" fill="white"/>
<path d="M62.2238 20.8528H59.0079L58.4659 22.4427H56.2617L59.4054 13.8789H61.7902L64.9339 22.4427H62.7297L62.2238 20.8528ZM61.6818 19.2629L60.5978 16.0831L59.5138 19.2629H61.6818Z" fill="white"/>
<path d="M68.7989 13.8066V22.4065H66.7031V13.8066H68.7989Z" fill="white"/>
<path d="M77.0002 21.2493C76.7834 21.6467 76.4221 21.9358 75.9884 22.1526C75.5548 22.3694 74.9767 22.4778 74.3624 22.4778C73.3868 22.4778 72.5918 22.2249 71.9776 21.7551C71.3633 21.2854 71.002 20.635 70.9658 19.7678H73.17C73.2061 20.093 73.3145 20.3459 73.5313 20.5266C73.7481 20.7073 74.0011 20.8157 74.2901 20.8157C74.5431 20.8157 74.7599 20.7434 74.9406 20.5989C75.1212 20.4543 75.1574 20.2737 75.1574 20.0207C75.1574 19.8039 75.0851 19.6232 74.9406 19.4787C74.796 19.3342 74.6154 19.2258 74.3986 19.1174C74.1817 19.009 73.8927 18.9006 73.5313 18.7922C72.9893 18.6115 72.5557 18.4308 72.1944 18.2501C71.833 18.0695 71.544 17.8165 71.291 17.4552C71.0381 17.0939 70.9297 16.6603 70.9297 16.1182C70.9297 15.6124 71.0742 15.1788 71.3272 14.7813C71.5801 14.4199 71.9414 14.1309 72.4112 13.9141C72.8809 13.7334 73.3868 13.625 74.0011 13.625C74.9767 13.625 75.7355 13.8418 76.2775 14.3115C76.8557 14.7813 77.1447 15.3956 77.217 16.1905H74.9767C74.9406 15.9014 74.8322 15.6846 74.6515 15.504C74.4708 15.3233 74.254 15.251 73.9649 15.251C73.712 15.251 73.5313 15.3233 73.3868 15.4317C73.2423 15.5762 73.17 15.7569 73.17 16.0098C73.17 16.2266 73.2423 16.3712 73.3868 16.5157C73.5313 16.6603 73.6759 16.7687 73.8927 16.8771C74.1095 16.9493 74.3986 17.0939 74.7599 17.2023C75.3019 17.3829 75.7716 17.5636 76.0968 17.7443C76.422 17.9249 76.7473 18.1779 77.0002 18.5392C77.2531 18.9006 77.3615 19.3342 77.3615 19.9123C77.3254 20.4543 77.217 20.8518 77.0002 21.2493Z" fill="white"/>
<path d="M85.2385 21.2493C85.0217 21.6467 84.6603 21.9358 84.2267 22.1526C83.7931 22.3694 83.215 22.4778 82.6007 22.4778C81.6251 22.4778 80.8301 22.2249 80.2159 21.7551C79.6016 21.2854 79.2402 20.635 79.2041 19.7678H81.4083C81.4444 20.093 81.5528 20.3459 81.7696 20.5266C81.9864 20.7073 82.2394 20.8157 82.5284 20.8157C82.7814 20.8157 82.9982 20.7434 83.1788 20.5989C83.3595 20.4543 83.3957 20.2737 83.3957 20.0207C83.3957 19.8039 83.3234 19.6232 83.1788 19.4787C83.0343 19.3342 82.8536 19.2258 82.6368 19.1174C82.42 19.009 82.131 18.9006 81.7696 18.7922C81.2276 18.6115 80.794 18.4308 80.4327 18.2501C80.0713 18.0695 79.7822 17.8165 79.5293 17.4552C79.2764 17.0939 79.168 16.6603 79.168 16.1182C79.168 15.6124 79.3125 15.1788 79.5654 14.7813C79.8184 14.4199 80.1797 14.1309 80.6495 13.9141C81.1192 13.7334 81.6251 13.625 82.2394 13.625C83.215 13.625 83.9738 13.8418 84.5158 14.3115C85.094 14.7813 85.383 15.3956 85.4553 16.1905H83.215C83.1788 15.9014 83.0704 15.6846 82.8898 15.504C82.7091 15.3233 82.4923 15.251 82.2032 15.251C81.9503 15.251 81.7696 15.3233 81.6251 15.4317C81.4806 15.5762 81.4083 15.7569 81.4083 16.0098C81.4083 16.2266 81.4806 16.3712 81.6251 16.5157C81.7696 16.6603 81.9142 16.7687 82.131 16.8771C82.3478 16.9493 82.6368 17.0939 82.9982 17.2023C83.5402 17.3829 84.0099 17.5636 84.3351 17.7443C84.6965 17.9249 84.9855 18.1779 85.2385 18.5392C85.4914 18.9006 85.5998 19.3342 85.5998 19.9123C85.5998 20.4543 85.4914 20.8518 85.2385 21.2493Z" fill="white"/>
<path d="M93.009 20.8528H89.7931L89.2511 22.4427H87.0469L90.1905 13.8789H92.5754L95.719 22.4427H93.5149L93.009 20.8528ZM92.467 19.2629L91.383 16.0831L90.2989 19.2629H92.467Z" fill="white"/>
<path d="M105.113 22.4065H103.017L99.5479 17.131V22.4065H97.4883V13.8066H99.584L103.053 19.1545V13.8066H105.149V22.4065H105.113Z" fill="white"/>
<path d="M114.148 14.6008C114.87 15.1789 115.34 15.9739 115.557 16.9495H113.353C113.208 16.552 112.955 16.2268 112.594 16.01C112.269 15.7932 111.871 15.6848 111.402 15.6848C110.787 15.6848 110.317 15.9016 109.92 16.3713C109.559 16.805 109.342 17.4192 109.342 18.178C109.342 18.9369 109.523 19.515 109.92 19.9486C110.281 20.3822 110.787 20.599 111.402 20.599C111.871 20.599 112.269 20.4906 112.594 20.2738C112.919 20.057 113.172 19.7318 113.353 19.3343H115.557C115.34 20.3099 114.87 21.1049 114.148 21.683C113.425 22.2612 112.522 22.5503 111.438 22.5503C110.607 22.5503 109.848 22.3696 109.233 22.0082C108.583 21.6469 108.113 21.1049 107.752 20.4545C107.391 19.8041 107.246 19.0453 107.246 18.178C107.246 17.3108 107.427 16.552 107.752 15.9016C108.113 15.2512 108.583 14.7092 109.233 14.3478C109.884 13.9865 110.607 13.8058 111.438 13.8058C112.522 13.7336 113.425 14.0226 114.148 14.6008Z" fill="white"/>
<path d="M119.712 15.4678V17.2745H122.639V18.8644H119.712V20.7795H123V22.4417H117.652V13.8418H123V15.504H119.712V15.4678Z" fill="white"/>
<path d="M38.4815 27.7511C38.337 28.004 38.1202 28.2208 37.8311 28.3653C37.5421 28.5099 37.2168 28.5821 36.8194 28.5821H35.6992V25.041H36.8194C37.2168 25.041 37.5421 25.1133 37.8311 25.2578C38.1202 25.4024 38.337 25.6192 38.4815 25.8721C38.6261 26.125 38.6983 26.4502 38.6983 26.8116C38.6983 27.1729 38.6261 27.4981 38.4815 27.7511ZM37.8673 27.8233C38.1202 27.5704 38.2286 27.2452 38.2286 26.8116C38.2286 26.378 38.1202 26.0528 37.8673 25.7998C37.6143 25.5469 37.2891 25.4385 36.8194 25.4385H36.2051V28.1485H36.8194C37.253 28.1847 37.6143 28.0763 37.8673 27.8233Z" fill="white"/>
<path d="M39.7461 25.0781V28.6193H39.3125V25.0781H39.7461Z" fill="white"/>
<path d="M43.1427 25.3312C43.4317 25.548 43.6124 25.801 43.7208 26.1623H43.2511C43.1788 25.9455 43.0343 25.7648 42.8175 25.6564C42.6368 25.5119 42.3839 25.4758 42.1309 25.4758C41.878 25.4758 41.6612 25.548 41.4805 25.6564C41.2998 25.7648 41.1553 25.9455 41.0469 26.1262C40.9385 26.343 40.8662 26.5598 40.8662 26.8489C40.8662 27.1379 40.9385 27.3909 41.0469 27.6077C41.1553 27.8245 41.2998 27.969 41.5166 28.0774C41.6973 28.1858 41.9502 28.2581 42.2032 28.2581C42.42 28.2581 42.6368 28.222 42.8175 28.1136C42.9981 28.0052 43.1427 27.8968 43.2511 27.7161C43.3595 27.5354 43.4317 27.3186 43.4679 27.1018H42.0948V26.7766H43.8653V27.2102C43.8292 27.4993 43.7569 27.7522 43.6124 27.969C43.4679 28.1858 43.2872 28.3665 43.0343 28.511C42.7813 28.6556 42.5284 28.7278 42.2032 28.7278C41.878 28.7278 41.5528 28.6556 41.2998 28.511C41.0469 28.3665 40.8301 28.1497 40.6856 27.8606C40.541 27.5715 40.4688 27.2825 40.4688 26.9211C40.4688 26.5598 40.541 26.2707 40.6856 25.9817C40.8301 25.6926 41.0469 25.5119 41.2998 25.3312C41.5528 25.1867 41.878 25.1144 42.2032 25.1144C42.4923 25.0422 42.8536 25.1506 43.1427 25.3312Z" fill="white"/>
<path d="M44.8408 25.0781V28.6193H44.3711V25.0781H44.8408Z" fill="white"/>
<path d="M47.7706 25.0781V25.4395H46.7588V28.6193H46.2891V25.4395H45.2773V25.0781H47.7706Z" fill="white"/>
<path d="M50.2628 27.7882H48.709L48.4199 28.6193H47.9141L49.2149 25.1504H49.7208L51.0216 28.6193H50.5157L50.2628 27.7882ZM50.1544 27.4268L49.504 25.6563L48.8535 27.4268H50.1544Z" fill="white"/>
<path d="M33.0987 27.7882H31.5449L31.2559 28.6193H30.75L32.0508 25.1504H32.5567L33.8575 28.6193H33.3516L33.0987 27.7882ZM32.9903 27.4268L32.3399 25.6563L31.6895 27.4268H32.9903Z" fill="white"/>
<path d="M51.9961 28.2579H53.2608V28.6193H51.5625V25.0781H52.0322V28.2579H51.9961Z" fill="white"/>
<path d="M57.7042 28.6193H57.2345L55.3916 25.8369V28.6193H54.9219V25.0781H55.3916L57.2345 27.8604V25.0781H57.7042V28.6193Z" fill="white"/>
<path d="M60.4893 27.7882H58.9356L58.6465 28.6193H58.1406L59.4415 25.1504H59.9473L61.2482 28.6193H60.7423L60.4893 27.7882ZM60.3809 27.4268L59.7305 25.6563L59.0801 27.4268H60.3809Z" fill="white"/>
<path d="M63.919 25.0781V25.4395H62.9073V28.6193H62.4375V25.4395H61.4258V25.0781H63.919Z" fill="white"/>
<path d="M64.8252 25.0781V28.6193H64.3555V25.0781H64.8252Z" fill="white"/>
<path d="M68.0753 25.259C68.3282 25.4035 68.545 25.6203 68.6896 25.9094C68.8341 26.1985 68.9064 26.4875 68.9064 26.8489C68.9064 27.2102 68.8341 27.4993 68.6896 27.7883C68.545 28.0774 68.3282 28.2942 68.0753 28.4388C67.8223 28.5833 67.5333 28.6556 67.1719 28.6556C66.8467 28.6556 66.5577 28.5833 66.2686 28.4388C66.0157 28.2942 65.7988 28.0774 65.6543 27.7883C65.5098 27.4993 65.4375 27.2102 65.4375 26.8489C65.4375 26.4875 65.5098 26.1985 65.6543 25.9094C65.7988 25.6203 66.0157 25.4035 66.2686 25.259C66.5215 25.1144 66.8467 25.0422 67.1719 25.0422C67.4971 25.006 67.7862 25.1144 68.0753 25.259ZM66.5215 25.6203C66.3408 25.7287 66.1963 25.9094 66.0518 26.09C65.9434 26.3069 65.8711 26.5598 65.8711 26.8127C65.8711 27.1018 65.9434 27.3186 66.0518 27.5354C66.1602 27.7522 66.3047 27.8967 66.5215 28.0051C66.7022 28.1135 66.919 28.1858 67.1719 28.1858C67.4249 28.1858 67.6417 28.1135 67.8223 28.0051C68.003 27.8967 68.1476 27.7161 68.2921 27.5354C68.4005 27.3186 68.4728 27.0657 68.4728 26.8127C68.4728 26.5237 68.4005 26.2707 68.2921 26.09C68.1837 25.8732 68.0391 25.7287 67.8223 25.6203C67.6417 25.5119 67.4249 25.4396 67.1719 25.4396C66.919 25.4396 66.7022 25.5119 66.5215 25.6203Z" fill="white"/>
<path d="M72.2667 28.6193H71.7969L69.9541 25.8369V28.6193H69.4844V25.0781H69.9541L71.7969 27.8604V25.0781H72.2667V28.6193Z" fill="white"/>
<path d="M14.1284 19.5846C14.1284 19.2956 13.8755 19.0426 13.5864 19.0426H1.08402V0.54201C1.08402 0.252938 0.831082 0 0.54201 0C0.252938 0 0 0.252938 0 0.54201V19.5485C0 19.8376 0.252938 20.0905 0.54201 20.0905H13.5502C13.8755 20.0905 14.1284 19.8737 14.1284 19.5846Z" fill="url(#paint0_linear_1009_89)"/>
<path d="M6.75493 1.08401H15.3548C20.3052 1.08401 24.3522 5.13102 24.3522 10.0814C24.3522 13.6225 22.2564 16.8746 19.0043 18.3199C18.7514 18.4283 18.6069 18.7535 18.7514 19.0065C18.8237 19.1871 19.0405 19.3317 19.2212 19.3317C19.2934 19.3317 19.3657 19.3317 19.438 19.2955C23.0875 17.7057 25.4362 14.0922 25.4362 10.1175C25.4362 4.58901 20.9195 0.0722656 15.391 0.0722656H5.88771C5.85158 0.0722656 5.81544 0.0722656 5.77931 0.0722656C5.74317 0.0722656 5.67091 0.108399 5.63477 0.144533C5.59864 0.180666 5.56251 0.216802 5.52637 0.252936C5.52637 0.252936 5.52637 0.252932 5.52637 0.289066C5.49024 0.3252 5.49024 0.361338 5.4541 0.433606C5.4541 0.433606 5.4541 0.433602 5.4541 0.469736C5.4541 0.50587 5.41797 0.578141 5.41797 0.614275V16.6578C5.41797 16.9468 5.67091 17.1998 5.95998 17.1998C6.24905 17.1998 6.50199 16.9468 6.50199 16.6578V2.56551L21.7144 29.6299H6.50199V22.4392C6.50199 22.1501 6.24905 21.8972 5.95998 21.8972C5.67091 21.8972 5.41797 22.1501 5.41797 22.4392V30.1719C5.41797 30.4609 5.67091 30.7139 5.95998 30.7139H22.6177C22.7984 30.7139 22.9791 30.6055 23.0875 30.4609C23.1959 30.3164 23.1959 30.0996 23.0875 29.9189L6.75493 1.08401Z" fill="url(#paint1_linear_1009_89)"/>
<defs>
<linearGradient id="paint0_linear_1009_89" x1="-5.77999e-07" y1="-4.10613" x2="7.0642" y2="20.0905" gradientUnits="userSpaceOnUse">
<stop stop-color="#87EFF4"/>
<stop offset="1" stop-color="white"/>
</linearGradient>
<linearGradient id="paint1_linear_1009_89" x1="5.41797" y1="-1.80665" x2="15.4271" y2="30.7139" gradientUnits="userSpaceOnUse">
<stop stop-color="#87EFF4"/>
<stop offset="1" stop-color="white"/>
</linearGradient>
</defs>
</svg>
