<svg width="1137" height="145" viewBox="0 0 1137 145" fill="none" xmlns="http://www.w3.org/2000/svg">
<path d="M99.6555 18.0098L21.0645 106.091" stroke="#CFD8DD" stroke-width="4.0208"/>
<path d="M185.818 36.5645L21.0645 106.091" stroke="#CFD8DD" stroke-width="4.0208"/>
<path d="M100.829 128.38L20.8516 106.199" stroke="#CFD8DD" stroke-width="4.0208"/>
<path d="M101.787 17.1562L76.0879 84.0172" stroke="#CFD8DD" stroke-width="4.0208"/>
<path d="M104.773 126.672L76.6211 83.1641" stroke="#CFD8DD" stroke-width="4.0208"/>
<path d="M101.574 14.2773L186.03 30.2728" stroke="#CFD8DD" stroke-width="4.0208"/>
<path d="M101.361 13.3164L179.313 75.592" stroke="#CFD8DD" stroke-width="4.0208"/>
<path d="M191.789 42.8555L179.1 75.9127" stroke="#CFD8DD" stroke-width="4.0208"/>
<path d="M102.748 12.5703L107.014 131.15" stroke="#CFD8DD" stroke-width="4.0208"/>
<path d="M188.908 39.6562L106.479 130.83" stroke="#CFD8DD" stroke-width="4.0208"/>
<path d="M173.768 79.8594L110.213 127.739" stroke="#CFD8DD" stroke-width="4.0208"/>
<circle cx="197.013" cy="32.0853" r="16.5286" fill="#FFC107"/>
<circle cx="106.852" cy="128.006" r="12.3165" fill="#2196F4"/>
<circle cx="102.908" cy="13.9041" r="8.90413" fill="#F34335"/>
<circle cx="76.2479" cy="82.6854" r="8.90413" fill="#9C27AF"/>
<circle cx="20.9041" cy="106.465" r="8.90413" fill="#F34335"/>
<circle cx="179.26" cy="77.0311" r="8.90413" fill="#8BC349"/>
<path d="M290.956 62.334L290.896 37.0029L278.471 57.8709H274.069L261.705 37.5457V62.334H252.537V20.1156H260.619L276.421 46.3513L291.981 20.1156H300.003L300.123 62.334H290.956ZM342.829 54.4934V62.334H310.14V20.1156H342.045V27.9561H319.85V37.1236H339.452V44.7229H319.85V54.4934H342.829ZM364.475 63.0577C361.138 63.0577 357.901 62.6154 354.765 61.7309C351.669 60.8061 349.176 59.6199 347.286 58.1725L350.603 50.8144C352.412 52.1412 354.564 53.2068 357.056 54.0109C359.549 54.8151 362.042 55.2172 364.535 55.2172C367.31 55.2172 369.36 54.8151 370.687 54.0109C372.014 53.1666 372.677 52.0608 372.677 50.6938C372.677 49.6886 372.275 48.8643 371.471 48.221C370.707 47.5374 369.702 46.9946 368.455 46.5925C367.249 46.1905 365.601 45.7482 363.51 45.2657C360.293 44.5017 357.66 43.7378 355.609 42.9738C353.558 42.2099 351.789 40.9835 350.302 39.2948C348.854 37.606 348.13 35.3544 348.13 32.5398C348.13 30.0871 348.794 27.8757 350.121 25.9055C351.447 23.8951 353.438 22.3069 356.091 21.1409C358.785 19.9748 362.062 19.3918 365.922 19.3918C368.616 19.3918 371.25 19.7135 373.823 20.3568C376.397 21.0001 378.648 21.9249 380.578 23.1312L377.563 30.5495C373.662 28.3381 369.762 27.2324 365.862 27.2324C363.128 27.2324 361.097 27.6747 359.771 28.5592C358.484 29.4438 357.841 30.6099 357.841 32.0573C357.841 33.5048 358.584 34.5904 360.072 35.3142C361.6 35.9977 363.912 36.6813 367.008 37.3648C370.225 38.1288 372.858 38.8927 374.909 39.6567C376.959 40.4206 378.709 41.6269 380.156 43.2754C381.644 44.9239 382.388 47.1555 382.388 49.97C382.388 52.3825 381.704 54.5939 380.337 56.6043C379.01 58.5745 377 60.1426 374.306 61.3087C371.612 62.4747 368.335 63.0577 364.475 63.0577ZM409.51 63.0577C405.127 63.0577 401.166 62.1128 397.628 60.2231C394.13 58.3333 391.376 55.7399 389.365 52.4428C387.395 49.1055 386.41 45.3662 386.41 41.2248C386.41 37.0833 387.395 33.3641 389.365 30.067C391.376 26.7298 394.13 24.1163 397.628 22.2265C401.166 20.3367 405.127 19.3918 409.51 19.3918C413.892 19.3918 417.833 20.3367 421.331 22.2265C424.829 24.1163 427.583 26.7298 429.593 30.067C431.604 33.3641 432.609 37.0833 432.609 41.2248C432.609 45.3662 431.604 49.1055 429.593 52.4428C427.583 55.7399 424.829 58.3333 421.331 60.2231C417.833 62.1128 413.892 63.0577 409.51 63.0577ZM409.51 54.7347C412.002 54.7347 414.254 54.1718 416.265 53.0459C418.275 51.8799 419.843 50.2716 420.969 48.221C422.135 46.1704 422.718 43.8383 422.718 41.2248C422.718 38.6112 422.135 36.2792 420.969 34.2286C419.843 32.178 418.275 30.5897 416.265 29.4639C414.254 28.2979 412.002 27.7149 409.51 27.7149C407.017 27.7149 404.765 28.2979 402.755 29.4639C400.744 30.5897 399.156 32.178 397.99 34.2286C396.864 36.2792 396.301 38.6112 396.301 41.2248C396.301 43.8383 396.864 46.1704 397.99 48.221C399.156 50.2716 400.744 51.8799 402.755 53.0459C404.765 54.1718 407.017 54.7347 409.51 54.7347ZM478.672 20.1156V62.334H470.651L449.602 36.7014V62.334H439.952V20.1156H448.034L469.022 45.7482V20.1156H478.672ZM491.556 62.8165C489.908 62.8165 488.52 62.2536 487.395 61.1277C486.269 60.0019 485.706 58.5946 485.706 56.9059C485.706 55.177 486.269 53.7898 487.395 52.7444C488.52 51.6588 489.908 51.1159 491.556 51.1159C493.205 51.1159 494.592 51.6588 495.718 52.7444C496.843 53.7898 497.406 55.177 497.406 56.9059C497.406 58.5946 496.843 60.0019 495.718 61.1277C494.592 62.2536 493.205 62.8165 491.556 62.8165Z" fill="#B6DCEF"/>
<path d="M291.257 83.1156V125.334H283.236L262.187 99.7014V125.334H252.537V83.1156H260.619L281.608 108.748V83.1156H291.257ZM333.935 117.493V125.334H301.246V83.1156H333.151V90.9561H310.956V100.124H330.558V107.723H310.956V117.493H333.935ZM350.455 91.0767H336.945V83.1156H373.735V91.0767H360.225V125.334H350.455V91.0767ZM442.037 83.1156L428.225 125.334H417.731L408.443 96.7461L398.853 125.334H388.419L374.547 83.1156H384.68L394.209 112.789L404.161 83.1156H413.207L422.857 113.03L432.688 83.1156H442.037ZM467.407 126.058C463.024 126.058 459.064 125.113 455.525 123.223C452.027 121.333 449.273 118.74 447.263 115.443C445.292 112.106 444.307 108.366 444.307 104.225C444.307 100.083 445.292 96.3641 447.263 93.067C449.273 89.7298 452.027 87.1163 455.525 85.2265C459.064 83.3367 463.024 82.3918 467.407 82.3918C471.789 82.3918 475.73 83.3367 479.228 85.2265C482.726 87.1163 485.48 89.7298 487.491 93.067C489.501 96.3641 490.506 100.083 490.506 104.225C490.506 108.366 489.501 112.106 487.491 115.443C485.48 118.74 482.726 121.333 479.228 123.223C475.73 125.113 471.789 126.058 467.407 126.058ZM467.407 117.735C469.9 117.735 472.151 117.172 474.162 116.046C476.172 114.88 477.74 113.272 478.866 111.221C480.032 109.17 480.615 106.838 480.615 104.225C480.615 101.611 480.032 99.2792 478.866 97.2286C477.74 95.178 476.172 93.5897 474.162 92.4639C472.151 91.2979 469.9 90.7149 467.407 90.7149C464.914 90.7149 462.662 91.2979 460.652 92.4639C458.641 93.5897 457.053 95.178 455.887 97.2286C454.761 99.2792 454.198 101.611 454.198 104.225C454.198 106.838 454.761 109.17 455.887 111.221C457.053 113.272 458.641 114.88 460.652 116.046C462.662 117.172 464.914 117.735 467.407 117.735ZM524.748 125.334L516.606 113.573H516.124H507.62V125.334H497.849V83.1156H516.124C519.863 83.1156 523.1 83.7388 525.834 84.9852C528.608 86.2317 530.739 88.0008 532.227 90.2927C533.715 92.5845 534.459 95.2986 534.459 98.4348C534.459 101.571 533.695 104.285 532.167 106.577C530.679 108.829 528.548 110.558 525.774 111.764L535.243 125.334H524.748ZM524.568 98.4348C524.568 96.0625 523.804 94.2532 522.276 93.0067C520.748 91.7201 518.516 91.0767 515.581 91.0767H507.62V105.793H515.581C518.516 105.793 520.748 105.15 522.276 103.863C523.804 102.576 524.568 100.767 524.568 98.4348ZM557.579 108.748L551.91 114.659V125.334H542.2V83.1156H551.91V102.838L570.607 83.1156H581.463L563.972 101.933L582.488 125.334H571.089L557.579 108.748Z" fill="white"/>
<path d="M967.157 68.623H951.344V81.4113H962.853C972.444 81.4113 973.084 90.3631 973.084 90.3631V117.218H988.43V87.9628C988.43 87.0057 988.397 86.0473 988.197 85.1112C987.417 81.4429 984.159 71.7233 971.313 68.9887C969.952 68.6989 968.549 68.623 967.157 68.623Z" fill="white"/>
<path d="M1000.32 94.7427C1000.32 94.0433 1000.56 93.4564 1001.03 92.9818C1001.53 92.4823 1002.13 92.2325 1002.83 92.2325H1017.29C1017.44 92.2325 1017.59 92.245 1017.74 92.27H1017.97C1019.71 92.3199 1021.15 92.7196 1022.27 93.4689C1023.4 94.2182 1024.21 95.0799 1024.71 96.054C1025.21 97.0031 1025.46 97.9647 1025.46 98.9388C1025.46 99.9379 1025.21 100.925 1024.71 101.899C1024.23 102.848 1023.42 103.697 1022.27 104.446C1021.15 105.196 1019.71 105.595 1017.97 105.645H1007.33C1006.85 105.67 1006.45 105.783 1006.13 105.982C1005.83 106.182 1005.6 106.444 1005.45 106.769C1005.3 107.069 1005.23 107.306 1005.23 107.481V108.268C1005.23 108.592 1005.3 108.842 1005.45 109.017C1005.63 109.192 1005.95 109.267 1006.43 109.242H1022.76C1023.46 109.242 1024.05 109.492 1024.52 109.991C1025.02 110.466 1025.27 111.053 1025.27 111.752C1025.27 112.451 1025.02 113.051 1024.52 113.55C1024.05 114.025 1023.46 114.262 1022.76 114.262H1004.4C1003 114.262 1001.93 113.925 1001.18 113.251C1000.46 112.551 1000.08 111.565 1000.06 110.291V107.481C1000.06 106.457 1000.29 105.458 1000.77 104.484C1001.27 103.485 1002.08 102.61 1003.2 101.861C1004.35 101.087 1005.8 100.675 1007.55 100.625H1018.19C1018.66 100.6 1019.05 100.5 1019.35 100.325C1019.68 100.125 1019.91 99.9129 1020.06 99.6881C1020.21 99.4384 1020.29 99.1886 1020.29 98.9388C1020.29 98.6891 1020.21 98.4518 1020.06 98.227C1019.91 97.9772 1019.68 97.7649 1019.35 97.5901C1019.05 97.3903 1018.66 97.2779 1018.19 97.2529H1002.83C1002.13 97.2529 1001.54 97.0031 1001.07 96.5036C1000.57 96.029 1000.32 95.4421 1000.32 94.7427ZM1048.57 92.2325C1049.85 92.2575 1050.98 92.6571 1051.98 93.4314C1052.98 94.2057 1053.78 95.1298 1054.38 96.2039C1055.01 97.2779 1055.47 98.4143 1055.77 99.6132C1056.07 100.812 1056.22 102.036 1056.22 103.285C1056.22 104.933 1055.96 106.557 1055.43 108.155C1054.93 109.729 1054.09 111.128 1052.92 112.352C1051.77 113.575 1050.32 114.237 1048.57 114.337H1036.7C1034.95 114.262 1033.49 113.613 1032.31 112.389C1031.14 111.165 1030.3 109.754 1029.8 108.155C1029.33 106.557 1029.09 104.933 1029.09 103.285C1029.09 101.636 1029.34 100.025 1029.84 98.4518C1030.34 96.8533 1031.17 95.4421 1032.31 94.2182C1033.49 92.9693 1034.95 92.3074 1036.7 92.2325H1037.41H1047.86H1048.57ZM1047.3 109.317C1048.25 109.267 1049.04 108.917 1049.66 108.268C1050.31 107.593 1050.77 106.819 1051.05 105.945C1051.32 105.071 1051.46 104.184 1051.46 103.285C1051.46 102.386 1051.31 101.511 1051.01 100.662C1050.74 99.7881 1050.29 99.0138 1049.66 98.3394C1049.04 97.665 1048.25 97.3028 1047.3 97.2529H1037.86C1036.91 97.3028 1036.12 97.665 1035.5 98.3394C1034.87 99.0138 1034.41 99.7881 1034.11 100.662C1033.84 101.511 1033.7 102.386 1033.7 103.285C1033.7 104.184 1033.84 105.071 1034.11 105.945C1034.39 106.819 1034.84 107.593 1035.46 108.268C1036.11 108.917 1036.91 109.267 1037.86 109.317H1047.3ZM1078.55 91.6331C1079.22 91.658 1079.8 91.9078 1080.27 92.3824C1080.75 92.832 1080.99 93.3939 1081.02 94.0683V103.772H1083.16C1083.85 103.797 1084.43 104.059 1084.88 104.559C1085.35 105.058 1085.59 105.658 1085.59 106.357C1085.57 107.031 1085.32 107.606 1084.84 108.08C1084.39 108.53 1083.83 108.767 1083.16 108.792H1081.02V112.426C1080.87 113.925 1080.05 114.737 1078.55 114.862C1077.85 114.862 1077.24 114.637 1076.71 114.187C1076.21 113.713 1075.96 113.126 1075.96 112.426V108.792H1068.02C1066.27 108.692 1064.82 108.105 1063.67 107.031C1062.55 105.932 1061.74 104.596 1061.24 103.023C1060.76 101.449 1060.51 99.7756 1060.49 98.0022V94.0683C1060.51 93.3939 1060.76 92.832 1061.24 92.3824C1061.71 91.9078 1062.29 91.658 1062.96 91.6331C1063.66 91.6331 1064.26 91.8703 1064.76 92.3449C1065.26 92.7945 1065.52 93.369 1065.55 94.0683V97.5526C1065.52 98.5767 1065.58 99.5258 1065.73 100.4C1065.91 101.249 1066.31 102.011 1066.93 102.685C1067.56 103.36 1068.34 103.722 1069.29 103.772H1075.96V94.0683C1075.99 93.369 1076.25 92.7945 1076.75 92.3449C1077.25 91.8703 1077.85 91.6331 1078.55 91.6331ZM1108.03 114.262H1093.35C1092.65 114.237 1092.06 113.975 1091.59 113.475C1091.14 112.976 1090.91 112.376 1090.91 111.677C1091.04 110.179 1091.85 109.367 1093.35 109.242H1106.76C1107.71 109.192 1108.49 108.83 1109.12 108.155C1109.74 107.481 1110.19 106.719 1110.47 105.87C1110.77 104.996 1110.92 104.109 1110.92 103.21C1110.92 102.311 1110.77 101.449 1110.47 100.625C1110.19 99.7756 1109.74 99.0138 1109.12 98.3394C1108.49 97.665 1107.71 97.3028 1106.76 97.2529H1096.79C1096.32 97.2279 1095.92 97.3153 1095.59 97.5151C1095.29 97.715 1095.07 97.9522 1094.92 98.227C1094.77 98.4768 1094.69 98.739 1094.69 99.0138C1094.69 99.1886 1094.77 99.4384 1094.92 99.7631C1095.07 100.063 1095.29 100.313 1095.59 100.512C1095.92 100.712 1096.32 100.825 1096.79 100.85H1106.38C1107.08 100.85 1107.67 101.099 1108.14 101.599C1108.64 102.073 1108.89 102.66 1108.89 103.36C1108.89 104.059 1108.66 104.659 1108.18 105.158C1107.68 105.633 1107.08 105.87 1106.38 105.87H1097.02C1095.27 105.82 1093.82 105.42 1092.67 104.671C1091.55 103.897 1090.74 103.023 1090.24 102.048C1089.76 101.049 1089.52 100.038 1089.52 99.0138C1089.52 98.0147 1089.77 97.0281 1090.27 96.054C1090.77 95.0549 1091.59 94.1807 1092.71 93.4314C1093.83 92.6571 1095.27 92.27 1097.02 92.27H1097.24C1097.39 92.245 1097.54 92.2325 1097.69 92.2325H1108.03C1109.78 92.3324 1111.22 93.0068 1112.34 94.2556C1113.49 95.4795 1114.3 96.8657 1114.78 98.4143C1115.28 99.9629 1115.53 101.561 1115.53 103.21C1115.53 104.858 1115.28 106.469 1114.78 108.043C1114.28 109.617 1113.46 111.028 1112.34 112.277C1111.22 113.5 1109.78 114.162 1108.03 114.262Z" fill="white"/>
<path d="M979.474 58.3898H950.061H934.715V45.6016H950.061H979.474V58.3898Z" fill="white"/>
<path d="M944.945 81.4093C935.354 80.7699 934.715 73.097 934.715 73.097V68.6211H950.061H969.243V81.4093H944.945Z" fill="white"/>
<path d="M945.585 23.8613H984.589V36.6496H950.061L934.715 36.5895V33.4525C934.715 33.4525 935.354 23.8613 945.585 23.8613Z" fill="white"/>
<path d="M892.516 44.9416H907.862L907.862 81.3023H892.516V44.9416Z" fill="white"/>
<path d="M1081.86 44.9416H1097.2L1097.2 81.3023H1081.86V44.9416Z" fill="white"/>
<path d="M872.055 36.6506V22.5835H928.323V36.6506H872.055Z" fill="white"/>
<path d="M1061.4 36.7623V22.6952H1117.67V36.7623H1061.4Z" fill="white"/>
<path d="M866.938 69.7961V23.119H851.592V67.2384L834.967 30.7919C834.967 30.7919 831.77 25.6766 829.852 24.3978C826.016 21.2007 816.425 21.2007 811.821 24.3978C806.194 28.2343 805.555 33.989 805.555 33.989V81.3055H820.9V37.186C820.9 37.186 832.41 63.4019 838.804 75.5508C839.621 77.1023 843.28 80.0267 845.198 80.6661C848.395 81.9449 856.708 81.3055 859.265 80.0267C866.938 76.1902 866.938 69.7961 866.938 69.7961Z" fill="white"/>
<path d="M1053.75 70.273V23.8091H1038.46V67.727L1021.89 31.447C1021.89 31.447 1018.7 26.355 1016.79 25.0821C1012.97 21.8996 1003.41 21.8996 998.818 25.0821C993.21 28.901 992.573 34.6294 992.573 34.6294V81.7298H1007.87V37.8119C1007.87 37.8119 1019.34 63.908 1025.71 76.0014C1026.99 77.9108 1030.17 80.4568 1032.08 81.0933C1035.27 82.3663 1043.55 81.7298 1046.1 80.4568C1053.75 76.6378 1053.75 70.273 1053.75 70.273Z" fill="white"/>
<path fill-rule="evenodd" clip-rule="evenodd" d="M799.161 43.2347C799.161 41.482 798.999 39.7284 798.412 38.0767C797.039 34.2055 793.515 26.9209 785.773 23.8075C783.282 22.8056 780.547 22.6952 777.861 22.6952H756.96C746.091 23.601 740.996 31.2429 738.948 35.6244C738.025 37.598 737.778 39.7831 737.778 41.9617V58.2833C737.778 61.836 737.884 65.4596 739.35 68.6958C741.458 73.3499 746.264 79.6932 756.96 80.8817H781.897C794.686 79.6029 799.161 67.454 799.161 63.6176V43.2347ZM783.816 44.4352C783.816 39.9593 780.619 35.4834 776.143 35.4834H761.436C756.321 35.4834 753.124 39.3199 753.124 42.9693V60.3014C753.124 61.6993 753.763 66.8146 759.409 67.454H776.196C779.979 67.454 783.816 62.9782 783.816 60.4205V44.4352Z" fill="white"/>
<path fill-rule="evenodd" clip-rule="evenodd" d="M799.161 43.2347C799.161 41.482 798.999 39.7284 798.412 38.0767C797.039 34.2055 793.515 26.9209 785.773 23.8075C783.282 22.8056 780.547 22.6952 777.861 22.6952H756.96C746.091 23.601 740.996 31.2429 738.948 35.6244C738.025 37.598 737.778 39.7831 737.778 41.9617V58.2833C737.778 61.836 737.884 65.4596 739.35 68.6958C741.458 73.3499 746.264 79.6932 756.96 80.8817H781.897C794.686 79.6029 799.161 67.454 799.161 63.6176V43.2347ZM783.816 44.4352C783.816 39.9593 780.619 35.4834 776.143 35.4834H761.436C756.321 35.4834 753.124 39.3199 753.124 42.9693V60.3014C753.124 61.6993 753.763 66.8146 759.409 67.454H776.196C779.979 67.454 783.816 62.9782 783.816 60.4205V44.4352Z" fill="white"/>
<path d="M729.787 46.4286H715.794V41.1979C715.794 41.1979 715.794 37.6847 710.706 37.6847H694.169C685.265 38.9339 685.901 46.4286 685.901 46.4286V60.7936C685.901 60.7936 686.537 66.4147 694.169 67.6638H708.798C715.008 67.6638 715.794 62.6673 715.794 62.6673V55.7971H729.787V64.541C729.787 64.541 727.879 80.1551 711.342 81.092H689.081C680.177 80.7797 670 71.4112 670 63.9165V43.3058C670 43.3058 671.272 25.1935 690.353 22.6952H713.886C727.879 24.5689 729.787 37.0602 729.787 37.0602V46.4286Z" fill="white"/>
<path d="M639.5 29L604.7 121H614.6L649.3 29H639.5Z" fill="white"/>
</svg>
