<svg width="120" height="31" viewBox="0 0 120 31" fill="none" xmlns="http://www.w3.org/2000/svg">
<path d="M27.1074 0.460938H3.01193C1.34849 0.460938 0 1.80943 0 3.47287V27.5683C0 29.2318 1.34849 30.5803 3.01193 30.5803H27.1074C28.7708 30.5803 30.1193 29.2318 30.1193 27.5683V3.47287C30.1193 1.80943 28.7708 0.460938 27.1074 0.460938Z" fill="white"/>
<mask id="mask0_1009_159" style="mask-type:alpha" maskUnits="userSpaceOnUse" x="4" y="4" width="22" height="23">
<path d="M25.9047 11.304V17.3279H7.83307V17.3279L7.05555 17.3279C7.87848 20.983 11.1444 23.7132 15.048 23.7132C18.2752 23.7132 21.0666 21.8471 22.4021 19.1351L25.9047 19.1351V24.1951C25.9047 25.3927 24.9338 26.3637 23.7361 26.3637H6.38734C5.18966 26.3637 4.21875 25.3927 4.21875 24.1951V11.304H25.9047ZM20.3221 19.1351C19.1721 20.8165 17.2389 21.9199 15.048 21.9199C12.8571 21.9199 10.9239 20.8165 9.77387 19.1351H20.3221ZM10.4233 12.7497C8.72389 12.7497 7.31795 14.0064 7.08413 15.6412L8.93265 15.6412C9.1359 15.012 9.72647 14.5569 10.4233 14.5569C11.1202 14.5569 11.7108 15.012 11.914 15.6412L13.7625 15.6412C13.5287 14.0064 12.1228 12.7497 10.4233 12.7497ZM19.7001 12.7497C18.0006 12.7497 16.5947 14.0064 16.3609 15.6412L18.2094 15.6412C18.4127 15.012 19.0032 14.5569 19.7001 14.5569C20.3969 14.5569 20.9875 15.012 21.1908 15.6412L23.0393 15.6412C22.8055 14.0064 21.3995 12.7497 19.7001 12.7497ZM23.7361 4.67773C24.9338 4.67773 25.9047 5.64865 25.9047 6.84633V9.49683H4.21875V6.84633C4.21875 5.64865 5.18966 4.67773 6.38734 4.67773H23.7361Z" fill="white"/>
</mask>
<g mask="url(#mask0_1009_159)">
<path d="M25.9008 11.304V17.3279H7.82916V17.3279L7.05164 17.3279C7.87457 20.983 11.1405 23.7132 15.0441 23.7132C18.2713 23.7132 21.0627 21.8471 22.3982 19.1351L25.9008 19.1351V24.1951C25.9008 25.3927 24.9298 26.3637 23.7322 26.3637H6.38344C5.18576 26.3637 4.21484 25.3927 4.21484 24.1951V11.304H25.9008ZM20.3182 19.1351C19.1682 20.8165 17.235 21.9199 15.0441 21.9199C12.8532 21.9199 10.92 20.8165 9.76997 19.1351H20.3182ZM10.4194 12.7497C8.71998 12.7497 7.31405 14.0064 7.08022 15.6412L8.92875 15.6412C9.132 15.012 9.72256 14.5569 10.4194 14.5569C11.1163 14.5569 11.7069 15.012 11.9101 15.6412L13.7586 15.6412C13.5248 14.0064 12.1189 12.7497 10.4194 12.7497ZM19.6962 12.7497C17.9967 12.7497 16.5908 14.0064 16.357 15.6412L18.2055 15.6412C18.4088 15.012 18.9993 14.5569 19.6962 14.5569C20.393 14.5569 20.9836 15.012 21.1869 15.6412L23.0354 15.6412C22.8016 14.0064 21.3956 12.7497 19.6962 12.7497ZM23.7322 4.67773C24.9298 4.67773 25.9008 5.64865 25.9008 6.84633V9.49683H4.21484V6.84633C4.21484 5.64865 5.18576 4.67773 6.38344 4.67773H23.7322Z" fill="black"/>
</g>
<path d="M93.7106 10.8968C96.8535 10.8968 100.423 12.1204 100.637 16.0357H96.2432C96.1517 14.9039 95.1142 14.3839 93.7412 14.3839C92.4596 14.3839 91.8799 14.8733 91.8799 15.4545C91.8799 15.9439 92.246 16.4027 93.4055 16.6168L96.1822 17.0757C98.9588 17.5957 100.79 18.9415 100.79 21.5721C100.79 24.998 97.7078 26.5886 93.8632 26.5886C89.9881 26.5886 86.8453 24.9674 86.5401 21.0215L90.934 21.0521C91.1476 22.3368 92.2155 22.918 93.7717 22.918C95.0837 22.918 95.8771 22.5203 95.8771 21.878C95.8771 21.3886 95.4194 20.9909 94.443 20.838L91.4527 20.318C88.8896 19.8898 87.1199 18.4521 87.1199 15.8521C87.1199 12.7321 89.7745 10.8968 93.7106 10.8968ZM75.1893 10.9545C76.8036 10.9545 78.1439 11.3823 79.2404 12.0851V11.2906H84.1748V26.1099H79.2404V25.285C78.1439 25.9877 76.8036 26.4155 75.1893 26.4155C71.1991 26.4155 67.8485 23.085 67.8485 18.685C67.8485 14.2545 71.1991 10.9545 75.1893 10.9545ZM46.2866 5.3009L53.6856 16.4184L61.054 5.3009H64.9063V26.1271H59.7393V15.6833L55.1226 22.8194V22.85H52.2486V22.8194L47.6013 15.6221L47.6319 26.1271H42.4648V5.3009H46.2866ZM108.451 4.43555V16.87L113.615 11.3096H119.512L113.89 17.3588L120 26.1271H114.073L110.529 20.9944L108.451 23.2247V26.1271H103.501V4.43555H108.451ZM76.164 14.9878C74.1536 14.9878 72.6916 16.6378 72.6916 18.685C72.6916 20.7322 74.1536 22.3517 76.164 22.3517C77.2605 22.3517 78.3266 22.0461 79.2404 20.9767V16.3934C78.3266 15.3239 77.2605 14.9878 76.164 14.9878Z" fill="white"/>
</svg>
