<svg width="114" height="50" viewBox="0 0 114 50" fill="none" xmlns="http://www.w3.org/2000/svg">
<path d="M9.434 16.156C8.50667 16.156 7.666 15.9567 6.912 15.558C6.16667 15.1507 5.57733 14.5917 5.144 13.881C4.71933 13.1617 4.507 12.3513 4.507 11.45C4.507 10.5487 4.71933 9.74267 5.144 9.032C5.57733 8.31267 6.16667 7.75367 6.912 7.355C7.666 6.94767 8.511 6.744 9.447 6.744C10.2357 6.744 10.9463 6.88267 11.579 7.16C12.2203 7.43733 12.7577 7.836 13.191 8.356L11.839 9.604C11.2237 8.89333 10.461 8.538 9.551 8.538C8.98767 8.538 8.485 8.66367 8.043 8.915C7.601 9.15767 7.25433 9.5 7.003 9.942C6.76033 10.384 6.639 10.8867 6.639 11.45C6.639 12.0133 6.76033 12.516 7.003 12.958C7.25433 13.4 7.601 13.7467 8.043 13.998C8.485 14.2407 8.98767 14.362 9.551 14.362C10.461 14.362 11.2237 14.0023 11.839 13.283L13.191 14.531C12.7577 15.0597 12.2203 15.4627 11.579 15.74C10.9377 16.0173 10.2227 16.156 9.434 16.156ZM21.3384 9.006V16H19.4144V15.168C19.1458 15.4713 18.8251 15.7053 18.4524 15.87C18.0798 16.026 17.6768 16.104 17.2434 16.104C16.3248 16.104 15.5968 15.8397 15.0594 15.311C14.5221 14.7823 14.2534 13.998 14.2534 12.958V9.006H16.2814V12.659C16.2814 13.7857 16.7538 14.349 17.6984 14.349C18.1838 14.349 18.5738 14.193 18.8684 13.881C19.1631 13.5603 19.3104 13.088 19.3104 12.464V9.006H21.3384ZM25.1543 9.929C25.3969 9.591 25.7219 9.33533 26.1293 9.162C26.5453 8.98867 27.0219 8.902 27.5593 8.902V10.774C27.3339 10.7567 27.1823 10.748 27.1043 10.748C26.5236 10.748 26.0686 10.9127 25.7393 11.242C25.4099 11.5627 25.2453 12.048 25.2453 12.698V16H23.2173V9.006H25.1543V9.929ZM31.548 8.902C32.6313 8.902 33.4633 9.162 34.044 9.682C34.6247 10.1933 34.915 10.969 34.915 12.009V16H33.017V15.129C32.6357 15.779 31.925 16.104 30.885 16.104C30.3477 16.104 29.8797 16.013 29.481 15.831C29.091 15.649 28.792 15.3977 28.584 15.077C28.376 14.7563 28.272 14.3923 28.272 13.985C28.272 13.335 28.5147 12.8237 29 12.451C29.494 12.0783 30.2523 11.892 31.275 11.892H32.887C32.887 11.45 32.7527 11.112 32.484 10.878C32.2153 10.6353 31.8123 10.514 31.275 10.514C30.9023 10.514 30.534 10.5747 30.17 10.696C29.8147 10.8087 29.5113 10.9647 29.26 11.164L28.532 9.747C28.9133 9.47833 29.3683 9.27033 29.897 9.123C30.4343 8.97567 30.9847 8.902 31.548 8.902ZM31.392 14.739C31.7387 14.739 32.0463 14.661 32.315 14.505C32.5837 14.3403 32.7743 14.102 32.887 13.79V13.075H31.496C30.664 13.075 30.248 13.348 30.248 13.894C30.248 14.154 30.3477 14.362 30.547 14.518C30.755 14.6653 31.0367 14.739 31.392 14.739ZM41.2615 15.662C41.0621 15.8093 40.8151 15.922 40.5205 16C40.2345 16.0693 39.9311 16.104 39.6105 16.104C38.7785 16.104 38.1328 15.8917 37.6735 15.467C37.2228 15.0423 36.9975 14.4183 36.9975 13.595V10.722H35.9185V9.162H36.9975V7.459H39.0255V9.162H40.7675V10.722H39.0255V13.569C39.0255 13.8637 39.0991 14.0933 39.2465 14.258C39.4025 14.414 39.6191 14.492 39.8965 14.492C40.2171 14.492 40.4901 14.4053 40.7155 14.232L41.2615 15.662ZM49.035 12.529C49.035 12.555 49.022 12.737 48.996 13.075H43.705C43.8004 13.5083 44.0257 13.8507 44.381 14.102C44.7364 14.3533 45.1784 14.479 45.707 14.479C46.071 14.479 46.3917 14.427 46.669 14.323C46.955 14.2103 47.2194 14.037 47.462 13.803L48.541 14.973C47.8824 15.727 46.9204 16.104 45.655 16.104C44.8664 16.104 44.1687 15.9523 43.562 15.649C42.9554 15.337 42.4874 14.908 42.158 14.362C41.8287 13.816 41.664 13.1963 41.664 12.503C41.664 11.8183 41.8244 11.203 42.145 10.657C42.4744 10.1023 42.9207 9.67333 43.484 9.37C44.056 9.058 44.693 8.902 45.395 8.902C46.0797 8.902 46.6994 9.04933 47.254 9.344C47.8087 9.63867 48.242 10.0633 48.554 10.618C48.8747 11.164 49.035 11.801 49.035 12.529ZM45.408 10.436C44.9487 10.436 44.563 10.566 44.251 10.826C43.939 11.086 43.7484 11.4413 43.679 11.892H47.124C47.0547 11.45 46.864 11.099 46.552 10.839C46.24 10.5703 45.8587 10.436 45.408 10.436ZM60.8919 11.268C61.4119 11.4327 61.8192 11.71 62.1139 12.1C62.4085 12.4813 62.5559 12.9537 62.5559 13.517C62.5559 14.3143 62.2439 14.9297 61.6199 15.363C61.0045 15.7877 60.1032 16 58.9159 16H54.2099V6.9H58.6559C59.7652 6.9 60.6145 7.11233 61.2039 7.537C61.8019 7.96167 62.1009 8.538 62.1009 9.266C62.1009 9.708 61.9925 10.1023 61.7759 10.449C61.5679 10.7957 61.2732 11.0687 60.8919 11.268ZM56.3029 8.486V10.631H58.3959C58.9159 10.631 59.3102 10.54 59.5789 10.358C59.8475 10.176 59.9819 9.90733 59.9819 9.552C59.9819 9.19667 59.8475 8.93233 59.5789 8.759C59.3102 8.577 58.9159 8.486 58.3959 8.486H56.3029ZM58.7599 14.414C59.3145 14.414 59.7305 14.323 60.0079 14.141C60.2939 13.959 60.4369 13.6773 60.4369 13.296C60.4369 12.542 59.8779 12.165 58.7599 12.165H56.3029V14.414H58.7599ZM70.9493 9.006L67.7903 16.429C67.4696 17.235 67.071 17.8027 66.5943 18.132C66.1263 18.4613 65.5586 18.626 64.8913 18.626C64.5273 18.626 64.1676 18.5697 63.8123 18.457C63.457 18.3443 63.1666 18.1883 62.9413 17.989L63.6823 16.546C63.8383 16.6847 64.016 16.793 64.2153 16.871C64.4233 16.949 64.627 16.988 64.8263 16.988C65.1036 16.988 65.329 16.9187 65.5023 16.78C65.6756 16.65 65.8316 16.429 65.9703 16.117L65.9963 16.052L62.9673 9.006H65.0603L67.0233 13.751L68.9993 9.006H70.9493Z" fill="white"/>
<path d="M19.3823 24.2832L5.58984 39.7412" stroke="#CFD8DD" stroke-width="0.705637"/>
<path d="M34.5034 27.5391L5.58984 39.7408" stroke="#CFD8DD" stroke-width="0.705637"/>
<path d="M19.5885 43.6523L5.55273 39.7598" stroke="#CFD8DD" stroke-width="0.705637"/>
<path d="M19.7582 24.1328L15.248 35.8667" stroke="#CFD8DD" stroke-width="0.705637"/>
<path d="M20.2824 43.3522L15.3418 35.7168" stroke="#CFD8DD" stroke-width="0.705637"/>
<path d="M19.7188 23.627L34.5405 26.4341" stroke="#CFD8DD" stroke-width="0.705637"/>
<path d="M19.6816 23.459L33.3618 34.3881" stroke="#CFD8DD" stroke-width="0.705637"/>
<path d="M35.5532 28.6426L33.3262 34.444" stroke="#CFD8DD" stroke-width="0.705637"/>
<path d="M19.9258 23.3281L20.6744 44.1384" stroke="#CFD8DD" stroke-width="0.705637"/>
<path d="M35.0462 28.082L20.5801 44.0828" stroke="#CFD8DD" stroke-width="0.705637"/>
<path d="M32.3901 35.1367L21.2363 43.5394" stroke="#CFD8DD" stroke-width="0.705637"/>
<circle cx="36.4691" cy="26.7542" r="2.90072" fill="#FFC107"/>
<circle cx="20.6459" cy="43.5873" r="2.1615" fill="#2196F4"/>
<circle cx="19.9533" cy="23.5626" r="1.56264" fill="#F34335"/>
<circle cx="15.2755" cy="35.633" r="1.56264" fill="#9C27AF"/>
<circle cx="5.56264" cy="39.8068" r="1.56264" fill="#F34335"/>
<circle cx="33.3537" cy="34.6408" r="1.56264" fill="#8BC349"/>
<path d="M52.9568 31.7598L52.9462 27.3143L50.7658 30.9765H49.9931L47.8233 27.4095V31.7598H46.2145V24.3506H47.6328L50.4059 28.9549L53.1368 24.3506H54.5445L54.5657 31.7598H52.9568ZM62.0604 30.3838V31.7598H56.3235V24.3506H61.9228V25.7266H58.0276V27.3354H61.4676V28.6691H58.0276V30.3838H62.0604ZM65.8591 31.8868C65.2735 31.8868 64.7054 31.8092 64.155 31.6539C63.6117 31.4916 63.1742 31.2835 62.8425 31.0294L63.4247 29.7381C63.7422 29.971 64.1197 30.158 64.5572 30.2991C64.9947 30.4402 65.4322 30.5108 65.8697 30.5108C66.3566 30.5108 66.7165 30.4402 66.9493 30.2991C67.1822 30.1509 67.2986 29.9569 67.2986 29.7169C67.2986 29.5405 67.2281 29.3959 67.0869 29.283C66.9529 29.163 66.7765 29.0678 66.5577 28.9972C66.346 28.9266 66.0567 28.849 65.6898 28.7643C65.1253 28.6303 64.6631 28.4962 64.3032 28.3621C63.9433 28.2281 63.6328 28.0128 63.3718 27.7165C63.1177 27.4201 62.9907 27.0249 62.9907 26.531C62.9907 26.1006 63.1071 25.7125 63.34 25.3667C63.5729 25.0139 63.9222 24.7352 64.3879 24.5305C64.8607 24.3259 65.4357 24.2236 66.1132 24.2236C66.5859 24.2236 67.0481 24.28 67.4997 24.3929C67.9513 24.5058 68.3465 24.6681 68.6852 24.8798L68.156 26.1817C67.4715 25.7936 66.787 25.5996 66.1026 25.5996C65.6227 25.5996 65.2664 25.6772 65.0335 25.8324C64.8077 25.9877 64.6948 26.1923 64.6948 26.4463C64.6948 26.7004 64.8254 26.8909 65.0865 27.0179C65.3546 27.1378 65.7603 27.2578 66.3037 27.3778C66.8682 27.5118 67.3304 27.6459 67.6903 27.78C68.0501 27.914 68.3571 28.1257 68.6111 28.415C68.8722 28.7044 69.0027 29.096 69.0027 29.5899C69.0027 30.0133 68.8828 30.4014 68.6429 30.7542C68.41 31.1 68.0572 31.3752 67.5844 31.5798C67.1116 31.7845 66.5365 31.8868 65.8591 31.8868ZM73.7626 31.8868C72.9934 31.8868 72.2984 31.721 71.6774 31.3893C71.0635 31.0577 70.5801 30.6025 70.2273 30.0239C69.8816 29.4382 69.7087 28.782 69.7087 28.0552C69.7087 27.3284 69.8816 26.6757 70.2273 26.097C70.5801 25.5114 71.0635 25.0527 71.6774 24.721C72.2984 24.3894 72.9934 24.2236 73.7626 24.2236C74.5317 24.2236 75.2232 24.3894 75.8371 24.721C76.451 25.0527 76.9344 25.5114 77.2872 26.097C77.64 26.6757 77.8164 27.3284 77.8164 28.0552C77.8164 28.782 77.64 29.4382 77.2872 30.0239C76.9344 30.6025 76.451 31.0577 75.8371 31.3893C75.2232 31.721 74.5317 31.8868 73.7626 31.8868ZM73.7626 30.4261C74.2001 30.4261 74.5952 30.3273 74.948 30.1297C75.3009 29.9251 75.5761 29.6429 75.7736 29.283C75.9783 28.9231 76.0806 28.5138 76.0806 28.0552C76.0806 27.5965 75.9783 27.1872 75.7736 26.8274C75.5761 26.4675 75.3009 26.1888 74.948 25.9912C74.5952 25.7866 74.2001 25.6842 73.7626 25.6842C73.3251 25.6842 72.9299 25.7866 72.5771 25.9912C72.2243 26.1888 71.9456 26.4675 71.7409 26.8274C71.5433 27.1872 71.4445 27.5965 71.4445 28.0552C71.4445 28.5138 71.5433 28.9231 71.7409 29.283C71.9456 29.6429 72.2243 29.9251 72.5771 30.1297C72.9299 30.3273 73.3251 30.4261 73.7626 30.4261ZM85.9004 24.3506V31.7598H84.4927L80.7986 27.2613V31.7598H79.1051V24.3506H80.5234L84.2069 28.849V24.3506H85.9004ZM88.1614 31.8444C87.8721 31.8444 87.6287 31.7457 87.4311 31.5481C87.2335 31.3505 87.1347 31.1035 87.1347 30.8072C87.1347 30.5037 87.2335 30.2603 87.4311 30.0768C87.6287 29.8863 87.8721 29.791 88.1614 29.791C88.4508 29.791 88.6942 29.8863 88.8918 30.0768C89.0894 30.2603 89.1881 30.5037 89.1881 30.8072C89.1881 31.1035 89.0894 31.3505 88.8918 31.5481C88.6942 31.7457 88.4508 31.8444 88.1614 31.8444Z" fill="#B6DCEF"/>
<path d="M53.0097 35.3506V42.7598H51.602L47.908 38.2613V42.7598H46.2145V35.3506H47.6328L51.3162 39.849V35.3506H53.0097ZM60.4995 41.3838V42.7598H54.7627V35.3506H60.3619V36.7266H56.4668V38.3354H59.9068V39.6691H56.4668V41.3838H60.4995ZM63.3986 36.7477H61.0277V35.3506H67.4843V36.7477H65.1133V42.7598H63.3986V36.7477ZM79.4709 35.3506L77.0471 42.7598H75.2054L73.5754 37.7427L71.8924 42.7598H70.0613L67.6268 35.3506H69.405L71.0774 40.5582L72.8238 35.3506H74.4115L76.1051 40.6005L77.8303 35.3506H79.4709ZM83.9233 42.8868C83.1542 42.8868 82.4591 42.721 81.8382 42.3893C81.2243 42.0577 80.7409 41.6025 80.3881 41.0239C80.0423 40.4382 79.8694 39.782 79.8694 39.0552C79.8694 38.3284 80.0423 37.6757 80.3881 37.097C80.7409 36.5114 81.2243 36.0527 81.8382 35.721C82.4591 35.3894 83.1542 35.2236 83.9233 35.2236C84.6925 35.2236 85.384 35.3894 85.9979 35.721C86.6118 36.0527 87.0952 36.5114 87.448 37.097C87.8008 37.6757 87.9772 38.3284 87.9772 39.0552C87.9772 39.782 87.8008 40.4382 87.448 41.0239C87.0952 41.6025 86.6118 42.0577 85.9979 42.3893C85.384 42.721 84.6925 42.8868 83.9233 42.8868ZM83.9233 41.4261C84.3608 41.4261 84.756 41.3273 85.1088 41.1297C85.4616 40.9251 85.7368 40.6429 85.9344 40.283C86.139 39.9231 86.2413 39.5138 86.2413 39.0552C86.2413 38.5965 86.139 38.1872 85.9344 37.8274C85.7368 37.4675 85.4616 37.1888 85.1088 36.9912C84.756 36.7866 84.3608 36.6842 83.9233 36.6842C83.4858 36.6842 83.0907 36.7866 82.7379 36.9912C82.385 37.1888 82.1063 37.4675 81.9017 37.8274C81.7041 38.1872 81.6053 38.5965 81.6053 39.0552C81.6053 39.5138 81.7041 39.9231 81.9017 40.283C82.1063 40.6429 82.385 40.9251 82.7379 41.1297C83.0907 41.3273 83.4858 41.4261 83.9233 41.4261ZM93.9866 42.7598L92.5577 40.6958H92.473H90.9806V42.7598H89.2659V35.3506H92.473C93.1292 35.3506 93.6973 35.46 94.1771 35.6787C94.664 35.8974 95.038 36.2079 95.2991 36.6101C95.5601 37.0124 95.6907 37.4887 95.6907 38.0391C95.6907 38.5895 95.5566 39.0658 95.2885 39.468C95.0274 39.8631 94.6534 40.1666 94.1665 40.3782L95.8283 42.7598H93.9866ZM93.9548 38.0391C93.9548 37.6227 93.8208 37.3052 93.5526 37.0864C93.2845 36.8606 92.8928 36.7477 92.3777 36.7477H90.9806V39.3304H92.3777C92.8928 39.3304 93.2845 39.2175 93.5526 38.9917C93.8208 38.7659 93.9548 38.4483 93.9548 38.0391ZM99.7483 39.849L98.7533 40.8863V42.7598H97.0492V35.3506H98.7533V38.8117L102.035 35.3506H103.94L100.87 38.653L104.12 42.7598H102.119L99.7483 39.849Z" fill="white"/>
</svg>
