<svg width="131" height="31" viewBox="0 0 131 31" fill="none" xmlns="http://www.w3.org/2000/svg">
<path d="M44.0275 11.4955C45.1982 10.2761 46.7428 9.6582 48.694 9.6582C50.6452 9.6582 52.1898 10.2761 53.3605 11.4955C54.5312 12.715 55.1328 14.3085 55.1653 16.2596C55.1328 18.2108 54.5312 19.8042 53.3605 21.0237C52.1898 22.2432 50.6452 22.861 48.694 22.861C46.7428 22.861 45.1982 22.2432 44.0275 21.0237C42.8568 19.8042 42.2552 18.2108 42.2227 16.2596C42.2714 14.3247 42.873 12.7313 44.0275 11.4955ZM43.8974 16.2759C43.8974 17.7393 44.3202 18.9425 45.1657 19.9018C46.0274 20.8448 47.1981 21.3164 48.6615 21.3164C50.1411 21.3164 51.3118 20.8448 52.1736 19.9018C53.0353 18.9425 53.4581 17.7393 53.4581 16.2759C53.4581 14.8125 53.0353 13.6093 52.1736 12.6662C51.3118 11.7069 50.1411 11.2354 48.6615 11.2354C47.1819 11.2354 46.0274 11.7069 45.1657 12.6662C44.3202 13.6093 43.8974 14.8125 43.8974 16.2759ZM64.9862 21.5603C64.1082 22.4383 63.0675 22.8936 61.8806 22.8936C60.6936 22.8936 59.653 22.4383 58.7912 21.5278H58.7425V26.9422H57.0677V13.3166H58.5474L58.7425 14.4873H58.7912C59.6693 13.5768 60.6936 13.1215 61.8806 13.1215C63.0675 13.1215 64.1082 13.5605 64.9862 14.4548C65.8805 15.3328 66.3357 16.5198 66.3357 18.0157C66.3195 19.479 65.8805 20.666 64.9862 21.5603ZM61.6204 14.6824C60.5148 14.6824 59.5392 15.1377 58.71 16.0645V19.9343C59.5392 20.8611 60.5148 21.3164 61.6204 21.3164C62.531 21.3164 63.2627 21.0237 63.8155 20.4546C64.3683 19.8855 64.6447 19.0563 64.6447 17.9994C64.6447 16.9425 64.3683 16.1295 63.8155 15.5442C63.2627 14.9751 62.531 14.6824 61.6204 14.6824ZM76.3517 17.9994V18.5848H69.2462C69.3438 19.4465 69.669 20.1132 70.2055 20.5847C70.7421 21.0562 71.5551 21.3001 72.6607 21.3001C73.7664 21.3001 74.7907 20.9912 75.7176 20.3733H75.8151V21.9993C74.7908 22.5684 73.5713 22.861 72.1729 22.861C70.7909 22.861 69.669 22.4383 68.8235 21.5928C67.9942 20.731 67.5715 19.5766 67.5715 18.1295C67.5715 16.6661 67.9454 15.4629 68.6934 14.5198C69.4413 13.5768 70.5307 13.1053 71.9778 13.1053C73.4087 13.1053 74.5143 13.5768 75.2623 14.5198C75.9777 15.4792 76.3517 16.6336 76.3517 17.9994ZM69.2462 17.2189H74.6769C74.6282 16.3409 74.3192 15.658 73.7827 15.219C73.2461 14.7637 72.6282 14.5361 71.9616 14.5361C71.2787 14.5361 70.6771 14.7637 70.1405 15.219C69.6039 15.6743 69.295 16.3409 69.2462 17.2189ZM83.1645 13.1215C84.1888 13.1215 84.9856 13.463 85.5709 14.1459C86.1563 14.8288 86.4489 15.6905 86.4489 16.7312V22.6985H84.7742V16.91C84.7742 15.4141 84.0913 14.6662 82.7417 14.6662C81.6686 14.6662 80.6605 15.2515 79.7174 16.4385V22.6985H78.0427V13.3004H79.5223L79.7174 14.4711V14.7475H79.75C80.7581 13.6743 81.8962 13.1215 83.1645 13.1215ZM97.8144 9.83706C98.8713 9.83706 99.8144 10.0322 100.676 10.4061C101.538 10.7801 102.221 11.2679 102.741 11.902C103.798 13.1703 104.318 14.6174 104.318 16.2596C104.318 17.5767 103.977 18.7636 103.294 19.853C102.546 21.04 101.505 21.8692 100.188 22.3245C99.4567 22.5684 98.6762 22.6985 97.8307 22.6985H93.2942V9.85332H97.8144V9.83706ZM97.6193 21.1375C99.1477 21.1375 100.367 20.6823 101.278 19.788C102.205 18.8937 102.66 17.723 102.66 16.2759C102.66 14.8288 102.205 13.6581 101.278 12.7638C100.351 11.8695 99.1315 11.4142 97.6193 11.4142H94.969V21.1375H97.6193ZM115.684 22.6985L114.302 19.3977H108.058L106.676 22.6985H104.855L110.302 9.85332H112.058L117.505 22.6985H115.684ZM108.725 17.7718V17.8693H113.635V17.7718L111.212 11.902H111.18L108.725 17.7718ZM119.863 11.4955C121.033 10.2761 122.578 9.6582 124.529 9.6582C126.464 9.6582 128.025 10.2761 129.196 11.4955C130.366 12.715 130.968 14.3085 131 16.2596C130.968 18.2108 130.366 19.8042 129.196 21.0237C128.025 22.2432 126.48 22.861 124.529 22.861C122.594 22.861 121.033 22.2432 119.863 21.0237C118.692 19.8042 118.09 18.2108 118.058 16.2596C118.09 14.3247 118.692 12.7313 119.863 11.4955ZM119.732 16.2759C119.732 17.7393 120.155 18.9425 121.001 19.9018C121.862 20.8448 123.033 21.3164 124.497 21.3164C125.976 21.3164 127.147 20.8448 128.009 19.9018C128.87 18.9425 129.293 17.7393 129.293 16.2759C129.293 14.8125 128.87 13.6093 128.009 12.6662C127.147 11.7069 125.976 11.2354 124.497 11.2354C123.017 11.2354 121.862 11.7069 121.001 12.6662C120.155 13.6093 119.732 14.8125 119.732 16.2759Z" fill="white"/>
<path d="M20.8412 2.60306C14.0093 0.22225 9.46955 3.86 9.46955 3.86C10.0463 3.79346 10.6378 3.75649 11.2293 3.75649C18.8153 3.75649 24.967 9.30184 24.967 16.1411C24.967 22.9804 18.7857 29.2577 11.2293 28.5257C10.0758 28.4148 9.01114 28.2004 8.03516 27.9047C10.5195 29.5239 15.5916 32.0156 21.6989 30.5442V30.5886C27.2517 28.0747 31.0742 22.8399 31.0742 16.777C31.0816 10.4109 26.8598 4.94689 20.8412 2.60306Z" fill="#EAEBFD"/>
<path d="M28.6583 8.90234C28.6583 8.90234 31.1426 13.0133 29.3755 18.115C27.6157 23.2241 21.7377 24.3628 21.7377 24.3628C21.7377 24.3628 20.2219 25.9007 18.6914 26.7806C18.6914 26.7806 22.6767 27.3351 24.5991 26.1743C26.5214 25.0134 29.4494 22.1816 29.4494 22.1816L30.7137 18.8988L31.0686 16.3553C31.0686 16.3553 30.5511 12.5327 30.211 11.6972C29.8782 10.8691 28.6583 8.90234 28.6583 8.90234Z" fill="url(#paint0_linear_1009_150)"/>
<path d="M12.3864 3.80768C12.3864 3.80768 17.3328 1.18288 24.3422 4.45094C24.3422 4.45094 20.66 1.54518 16.1276 1.67826C11.5878 1.81135 9.64327 3.5489 9.41406 3.89641C9.41406 3.89641 10.4344 3.68938 12.3864 3.80768Z" fill="url(#paint1_linear_1009_150)"/>
<path d="M29.3136 25.4648C32.8257 20.4961 32.2416 13.7234 28.3746 8.45901C31.1991 12.6513 31.5096 17.9379 28.7295 21.864C25.0031 27.1358 17.1139 27.9713 11.1175 23.7272C5.12112 19.4832 3.28006 11.7714 7.00654 6.49965C10.6813 1.3092 18.3782 0.421942 24.3376 4.44417C24.2489 4.37763 24.1528 4.31108 24.064 4.24454C16.6185 -1.01985 6.88085 -0.0734418 2.32626 6.37395C-2.22832 12.8214 0.108122 22.3224 7.56108 27.5942C11.99 30.7291 17.2248 31.6608 21.698 30.5517C24.7591 29.7901 27.4652 28.0822 29.3136 25.4648Z" fill="white"/>
<defs>
<linearGradient id="paint0_linear_1009_150" x1="18.5098" y1="18.039" x2="31.0982" y2="17.7774" gradientUnits="userSpaceOnUse">
<stop offset="0.3772" stop-color="#ABFCFF"/>
<stop offset="1" stop-color="#87E7FF"/>
</linearGradient>
<linearGradient id="paint1_linear_1009_150" x1="9.41406" y1="3.06238" x2="24.3422" y2="3.06238" gradientUnits="userSpaceOnUse">
<stop offset="0.3772" stop-color="#ABFCFF"/>
<stop offset="1" stop-color="#97F2FF"/>
</linearGradient>
</defs>
</svg>
