<svg width="229" height="31" viewBox="0 0 229 31" fill="none" xmlns="http://www.w3.org/2000/svg">
<g clip-path="url(#clip0_1009_130)">
<path d="M30.065 15.1227C30.0103 14.1029 29.854 13.1098 29.6058 12.154C29.4588 11.5863 29.2783 11.0278 29.065 10.4816C28.0011 7.74999 26.1624 5.40561 23.8193 3.71975C22.2836 2.61383 20.531 1.79098 18.6376 1.32687C17.4859 1.04422 16.2824 0.894531 15.0438 0.894531C13.8052 0.894531 12.6017 1.04422 11.45 1.32687C9.55657 1.79098 7.80397 2.61425 6.26825 3.71975C3.92518 5.40602 2.08649 7.74999 1.02256 10.4816C0.811111 11.0243 0.62975 11.5825 0.481819 12.154C0.233597 13.1098 0.0773084 14.1029 0.0225657 15.1227C0.0075219 15.3957 0 15.6704 0 15.9468C0 16.2315 0.00793978 16.5142 0.0238193 16.7951C0.078562 17.7852 0.229 18.7503 0.466358 19.6802C0.612199 20.2513 0.790635 20.8095 0.999994 21.3526C2.06016 24.1097 3.90804 26.4754 6.26825 28.1738C7.80397 29.2793 9.55657 30.1026 11.45 30.5667C12.6017 30.8493 13.8052 30.999 15.0438 30.999C16.2824 30.999 17.4859 30.8493 18.6376 30.5667C20.531 30.1026 22.2836 29.2797 23.8193 28.1738C26.1795 26.4754 28.0274 24.1097 29.088 21.3526C29.2974 20.8095 29.4754 20.2513 29.6212 19.6802C29.8586 18.7503 30.009 17.7852 30.0638 16.7951C30.0796 16.5142 30.0876 16.2315 30.0876 15.9468C30.0876 15.6704 30.0801 15.3957 30.065 15.1227V15.1227Z" fill="white"/>
<path d="M10.4043 15.2085L14.3048 11.3057C14.6312 10.9792 14.6312 10.4499 14.3048 10.1233C13.9784 9.79675 13.4494 9.79675 13.123 10.1233L9.22252 14.026C8.89615 14.3526 8.89615 14.8819 9.22252 15.2085C9.54889 15.535 10.0779 15.535 10.4043 15.2085ZM19.6237 16.6275L15.7232 20.5303C15.3968 20.8568 15.3968 21.3861 15.7232 21.7127C16.0495 22.0392 16.5786 22.0392 16.9049 21.7127L20.8054 17.81C21.1318 17.4834 21.1318 16.9541 20.8054 16.6275C20.4795 16.301 19.95 16.301 19.6237 16.6275ZM20.067 9.73905L8.83853 20.9739C8.51216 21.3004 8.51216 21.8298 8.83853 22.1563C9.16489 22.4829 9.69393 22.4829 10.0203 22.1563L21.2488 10.9215C21.5752 10.5949 21.5752 10.0656 21.2488 9.73905C20.9225 9.4125 20.3934 9.4125 20.067 9.73905Z" fill="black"/>
<path d="M47.8555 10.3594C48.614 10.7065 49.2032 11.2017 49.6132 11.8449C50.0231 12.4881 50.2283 13.2436 50.2283 14.1216C50.2283 14.9895 50.0231 15.745 49.6132 16.3882C49.2032 17.0365 48.614 17.5316 47.8555 17.8737C47.0971 18.2157 46.2003 18.3893 45.1648 18.3893H42.9203C42.8933 18.3893 42.8673 18.4 42.8481 18.4192C42.8289 18.4383 42.8181 18.4642 42.818 18.4913V21.544C42.8178 21.5711 42.8069 21.597 42.7878 21.6161C42.7686 21.6353 42.7427 21.646 42.7156 21.6461H40.2197C40.1926 21.6461 40.1666 21.6354 40.1474 21.6162C40.1282 21.5971 40.1173 21.5711 40.1172 21.544V9.94079C40.1173 9.91368 40.1282 9.88773 40.1474 9.8686C40.1666 9.84948 40.1926 9.83874 40.2197 9.83873H45.1648C46.2003 9.83873 47.0971 10.0123 47.8555 10.3594ZM46.8664 15.6327C47.2864 15.2804 47.5016 14.7751 47.5016 14.1216C47.5016 13.458 47.2918 12.9475 46.8664 12.5953C46.446 12.2431 45.8259 12.0644 45.0164 12.0644H42.9203C42.8933 12.0644 42.8673 12.0752 42.8481 12.0943C42.8289 12.1135 42.8181 12.1394 42.818 12.1665V16.0615C42.818 16.1176 42.8639 16.1636 42.9203 16.1636H45.0164C45.8259 16.1636 46.441 15.99 46.8664 15.6327ZM61.3502 17.9503C61.3147 17.8992 61.3352 17.8277 61.3916 17.7971C62.1037 17.4602 62.6574 16.9906 63.0569 16.3882C63.4718 15.7552 63.682 14.9946 63.682 14.1216C63.682 13.2436 63.4773 12.483 63.0673 11.8449C62.6574 11.2017 62.0678 10.7116 61.3093 10.3594C60.5508 10.0123 59.6541 9.83873 58.619 9.83873H53.6737C53.6466 9.83873 53.6207 9.84947 53.6015 9.8686C53.5823 9.88773 53.5715 9.91369 53.5714 9.94079V11.9623C53.5714 12.0185 53.6173 12.0644 53.6737 12.0644H58.4702C59.2801 12.0644 59.8952 12.2431 60.3206 12.5953C60.7406 12.9476 60.9558 13.458 60.9558 14.1216C60.9558 14.7751 60.7456 15.2804 60.3206 15.6378C59.9002 16.0002 59.2801 16.1789 58.4702 16.1789H53.6737C53.6466 16.1789 53.6207 16.1897 53.6015 16.2088C53.5823 16.2279 53.5715 16.2539 53.5714 16.281V21.5441C53.5714 21.6002 53.6173 21.6462 53.6737 21.6462H56.1693C56.2257 21.6462 56.2717 21.6002 56.2717 21.5441V18.4607C56.2717 18.4046 56.3181 18.3586 56.3745 18.3586H58.6959C58.7318 18.3586 58.7623 18.374 58.7832 18.4046L60.9712 21.6053C60.9917 21.6308 61.0226 21.6513 61.0581 21.6513H63.7079C63.7899 21.6513 63.8408 21.5594 63.7898 21.493L61.3502 17.9503V17.9503ZM84.8533 21.4088C84.2177 21.1229 83.6949 20.7197 83.2799 20.199C83.249 20.1632 83.249 20.1071 83.2799 20.0714L84.6431 18.4123C84.6526 18.4003 84.6646 18.3907 84.6784 18.3841C84.6921 18.3775 84.7072 18.374 84.7225 18.374C84.7377 18.374 84.7528 18.3775 84.7665 18.3841C84.7803 18.3907 84.7923 18.4003 84.8019 18.4123C85.417 19.2086 86.1136 19.6068 86.8925 19.6068C87.9945 19.6068 88.5427 18.9534 88.5427 17.6517V12.1385C88.5427 12.0823 88.4968 12.0364 88.4404 12.0364H84.5457C84.5186 12.0364 84.4926 12.0256 84.4734 12.0065C84.4543 11.9874 84.4434 11.9614 84.4433 11.9343V9.94342C84.4433 9.88727 84.4893 9.84132 84.5457 9.84132H91.1207C91.1771 9.84132 91.223 9.88727 91.223 9.94342V17.4985C91.223 18.9483 90.8695 20.0356 90.157 20.7605C89.4449 21.4854 88.4044 21.8478 87.0258 21.8478C86.2369 21.8529 85.5143 21.7049 84.8533 21.4088V21.4088ZM126.68 12.0644H123.154C123.098 12.0644 123.052 12.0185 123.052 11.9623V9.94079C123.052 9.88464 123.098 9.83873 123.154 9.83873H133.111C133.138 9.83873 133.164 9.84947 133.183 9.8686C133.203 9.88773 133.214 9.91369 133.214 9.94079V11.9623C133.214 12.0185 133.168 12.0644 133.111 12.0644H129.586C129.558 12.0644 129.532 12.0752 129.513 12.0943C129.494 12.1135 129.483 12.1394 129.483 12.1665V21.544C129.483 21.6002 129.437 21.6461 129.38 21.6461H126.885C126.858 21.6461 126.832 21.6354 126.813 21.6162C126.793 21.5971 126.782 21.5711 126.782 21.544V12.1665C126.782 12.1104 126.736 12.0644 126.68 12.0644V12.0644ZM70.2591 21.2574C69.2854 20.7264 68.527 20.0016 67.9783 19.0725C67.43 18.1434 67.1534 17.102 67.1534 15.9432C67.1534 14.7844 67.43 13.7431 67.9783 12.814C68.527 11.8849 69.2904 11.16 70.2591 10.6291C71.2328 10.0983 72.3243 9.83789 73.5336 9.83789C74.743 9.83789 75.8345 10.1034 76.7981 10.6291C77.7664 11.16 78.5248 11.8849 79.0785 12.814C79.6318 13.7431 79.9139 14.7844 79.9139 15.9432C79.9139 17.102 79.6368 18.1434 79.0785 19.0725C78.5248 20.0016 77.7614 20.7264 76.7981 21.2574C75.8295 21.7882 74.743 22.0486 73.5336 22.0486C72.3243 22.0486 71.2328 21.7831 70.2591 21.2574ZM75.3991 19.2409C75.9523 18.9194 76.3882 18.4752 76.7058 17.8984C77.0234 17.3215 77.1822 16.6732 77.1822 15.9432C77.1822 15.2133 77.0234 14.5598 76.7058 13.9881C76.3882 13.4164 75.9523 12.9671 75.3991 12.6456C74.8454 12.3239 74.2202 12.1657 73.5336 12.1657C72.847 12.1657 72.2215 12.3239 71.6682 12.6456C71.1149 12.9671 70.6791 13.4113 70.3615 13.9881C70.0439 14.5598 69.8847 15.2133 69.8847 15.9432C69.8847 16.6732 70.0439 17.3266 70.3615 17.8984C70.6791 18.4701 71.1149 18.9194 71.6682 19.2409C72.2215 19.5626 72.847 19.7208 73.5336 19.7208C74.2252 19.7208 74.8454 19.5575 75.3991 19.2409ZM95.4019 19.5582V21.549C95.4019 21.6052 95.4478 21.6511 95.5043 21.6511H104.329C104.385 21.6511 104.431 21.6052 104.431 21.549V19.5582C104.431 19.5311 104.42 19.5052 104.401 19.486C104.382 19.4669 104.356 19.4562 104.329 19.4561H95.5093C95.4478 19.4561 95.4019 19.502 95.4019 19.5582V19.5582ZM104.431 11.9011V9.94079C104.431 9.91371 104.42 9.8878 104.401 9.86868C104.382 9.84957 104.356 9.8388 104.329 9.83873H95.5043C95.4772 9.83873 95.4512 9.84947 95.432 9.8686C95.4128 9.88773 95.402 9.91369 95.4019 9.94079V11.9011C95.4019 11.9572 95.4478 12.0032 95.5043 12.0032H104.329C104.385 12.0032 104.431 11.9572 104.431 11.9011ZM95.4019 14.7037V16.6078C95.4019 16.6639 95.4478 16.7099 95.5043 16.7099H104.339C104.396 16.7099 104.442 16.6639 104.442 16.6078V14.7037C104.441 14.6766 104.431 14.6506 104.411 14.6315C104.392 14.6123 104.366 14.6016 104.339 14.6016H95.5043C95.4772 14.6016 95.4512 14.6123 95.432 14.6315C95.4128 14.6506 95.402 14.6766 95.4019 14.7037V14.7037ZM111.711 21.2625C110.752 20.7418 109.994 20.0118 109.446 19.0878C108.897 18.1587 108.62 17.1123 108.62 15.9432C108.62 14.7742 108.897 13.7227 109.446 12.7987C109.994 11.8696 110.752 11.1447 111.711 10.624C112.669 10.1034 113.75 9.83789 114.95 9.83789C115.959 9.83789 116.876 10.0166 117.691 10.379C118.475 10.7261 119.141 11.2162 119.685 11.8543C119.721 11.8951 119.715 11.9564 119.674 11.9972L118.091 13.4776C118.05 13.5185 117.983 13.5134 117.942 13.4725C117.163 12.6047 116.21 12.1708 115.077 12.1708C114.355 12.1708 113.709 12.329 113.146 12.6507C112.577 12.9723 112.136 13.4164 111.823 13.9932C111.506 14.565 111.347 15.2184 111.347 15.9484C111.347 16.6783 111.506 17.3318 111.823 17.9035C112.141 18.4752 112.582 18.9245 113.146 19.2461C113.714 19.5677 114.355 19.7259 115.077 19.7259C116.21 19.7259 117.163 19.2869 117.942 18.4089C117.961 18.388 117.987 18.3752 118.014 18.3733C118.042 18.3714 118.07 18.3805 118.091 18.3987L119.674 19.8791C119.715 19.9148 119.721 19.9761 119.685 20.0169C119.141 20.6652 118.47 21.1655 117.681 21.5126C116.861 21.8699 115.944 22.0537 114.934 22.0537C113.745 22.0486 112.669 21.7883 111.711 21.2625V21.2625ZM151.96 15.7578H154.22C154.276 15.7578 154.323 15.8037 154.323 15.8599V20.5002C154.323 20.5308 154.307 20.5614 154.282 20.5818C153.656 21.0515 152.939 21.4088 152.124 21.6641C151.289 21.9244 150.453 22.052 149.608 22.052C148.398 22.052 147.307 21.7917 146.343 21.2659C145.38 20.7401 144.621 20.0152 144.068 19.0913C143.519 18.1622 143.243 17.1157 143.243 15.9467C143.243 14.7777 143.519 13.7261 144.068 12.8021C144.616 11.873 145.38 11.1481 146.359 10.6275C147.338 10.1068 148.434 9.84132 149.659 9.84132C150.679 9.84132 151.606 10.0149 152.442 10.362C153.241 10.6989 153.923 11.1788 154.476 11.8067C154.512 11.8475 154.507 11.9088 154.471 11.9496L152.883 13.4351C152.842 13.4759 152.78 13.4708 152.739 13.43C151.919 12.5928 150.94 12.1691 149.792 12.1691C149.049 12.1691 148.388 12.3274 147.809 12.6439C147.23 12.9604 146.784 13.4045 146.461 13.9762C146.138 14.5479 145.98 15.2065 145.98 15.9518C145.98 16.6818 146.138 17.3352 146.461 17.9069C146.784 18.4787 147.23 18.9279 147.804 19.2495C148.378 19.5711 149.029 19.7294 149.761 19.7294C150.515 19.7294 151.196 19.5711 151.806 19.2546C151.842 19.2393 151.862 19.2036 151.862 19.1627V15.8701C151.857 15.8037 151.903 15.7578 151.96 15.7578V15.7578ZM174.235 9.84132H176.731C176.787 9.84132 176.833 9.88727 176.833 9.94342V19.321C176.833 19.3771 176.879 19.423 176.935 19.423H182.578C182.634 19.423 182.68 19.469 182.68 19.5251V21.5467C182.68 21.6028 182.634 21.6488 182.578 21.6488H174.235C174.208 21.6487 174.182 21.638 174.162 21.6189C174.143 21.5997 174.132 21.5738 174.132 21.5467V9.94342C174.132 9.88727 174.178 9.84132 174.235 9.84132ZM224.438 17.4934V21.5467C224.438 21.6028 224.391 21.6488 224.335 21.6488H221.839C221.812 21.6487 221.786 21.638 221.767 21.6189C221.748 21.5997 221.737 21.5738 221.737 21.5467V17.4577C221.737 17.4373 221.732 17.422 221.721 17.4067L217.314 9.99448C217.273 9.92812 217.324 9.84132 217.401 9.84132H220.03C220.066 9.84132 220.102 9.86172 220.117 9.89237L223.115 14.941C223.156 15.0074 223.254 15.0074 223.29 14.941L226.287 9.89237C226.308 9.86172 226.338 9.84132 226.374 9.84132H228.783C228.86 9.84132 228.911 9.92812 228.87 9.99448L224.443 17.4424C224.443 17.4577 224.438 17.4781 224.438 17.4934ZM165.577 9.84132H163.045C163.004 9.84132 162.969 9.86682 162.953 9.90257L157.844 21.5058C157.813 21.5722 157.865 21.6488 157.936 21.6488H160.478C160.519 21.6488 160.555 21.6232 160.575 21.5875L161.585 19.1219L162.451 17.0493L164.204 12.7613C164.211 12.7421 164.224 12.7257 164.241 12.714C164.258 12.7024 164.278 12.6962 164.298 12.6962C164.319 12.6962 164.339 12.7024 164.356 12.714C164.373 12.7257 164.386 12.7421 164.393 12.7613L166.146 17.0493L166.997 19.1219L168.001 21.5875C168.016 21.6283 168.052 21.6488 168.098 21.6488H170.707C170.778 21.6488 170.83 21.5722 170.799 21.5058L165.674 9.90257C165.654 9.86682 165.618 9.84132 165.577 9.84132ZM193.784 9.84132H191.253C191.212 9.84132 191.176 9.86682 191.16 9.90257L186.051 21.5058C186.02 21.5722 186.072 21.6488 186.144 21.6488H188.685C188.726 21.6488 188.762 21.6232 188.782 21.5875L189.792 19.1219L190.658 17.0493L192.411 12.7613C192.418 12.7421 192.431 12.7256 192.448 12.714C192.465 12.7024 192.485 12.6962 192.505 12.6962C192.526 12.6962 192.546 12.7024 192.563 12.714C192.58 12.7256 192.593 12.7421 192.6 12.7613L194.353 17.0493L195.204 19.1219L196.208 21.5875C196.223 21.6283 196.259 21.6488 196.306 21.6488H198.914C198.985 21.6488 199.037 21.5722 199.006 21.5058L193.881 9.90257C193.861 9.86682 193.825 9.84132 193.784 9.84132ZM206.782 11.6331L205.557 9.88727C205.536 9.86172 205.505 9.84132 205.474 9.84132H202.661C202.579 9.84132 202.528 9.93322 202.579 10.0047L205.116 13.5933C205.157 13.6495 205.239 13.6495 205.28 13.5984L206.787 11.7556C206.802 11.7199 206.807 11.6688 206.782 11.6331ZM211.05 17.6774L209.569 19.5509C209.543 19.5866 209.538 19.6325 209.564 19.6734L210.891 21.6081C210.911 21.6336 210.942 21.654 210.978 21.654H213.842C213.925 21.654 213.976 21.5621 213.925 21.4907L211.214 17.6876C211.173 17.6263 211.091 17.6263 211.05 17.6774ZM209.691 15.5434L213.642 10.0047C213.688 9.93832 213.642 9.84132 213.56 9.84132H210.896C210.86 9.84132 210.829 9.85662 210.808 9.88727L208.21 13.6699C208.21 13.675 208.205 13.675 208.205 13.675L206.56 15.6404L206.555 15.6455L202.358 21.4854C202.311 21.5518 202.358 21.6488 202.44 21.6488H205.284C205.32 21.6488 205.351 21.6334 205.371 21.6028L208.102 17.5496L208.107 17.5445L209.691 15.5434V15.5434Z" fill="white"/>
</g>
<defs>
<clipPath id="clip0_1009_130">
<rect width="229" height="30.1045" fill="white" transform="translate(0 0.894531)"/>
</clipPath>
</defs>
</svg>
