<svg width="124" height="31" viewBox="0 0 124 31" fill="none" xmlns="http://www.w3.org/2000/svg">
<path d="M86.4403 18.1518C84.707 15.5782 80.5265 14.2079 77.5349 13.4003C77.1862 13.3086 76.8233 13.2168 76.4378 13.121H76.4072C74.7962 12.7131 72.967 12.2624 71.5437 11.4896C69.9123 10.5964 69.1129 9.43808 69.1129 7.94943C69.1108 7.70782 69.1333 7.46662 69.1802 7.22958V7.18676C69.2025 7.07712 69.2311 6.96886 69.2658 6.86252C69.2697 6.84795 69.2744 6.83365 69.2801 6.81969V6.80338C69.4906 6.18583 69.8442 5.62682 70.312 5.17199C71.5212 3.94844 73.4503 3.26121 75.614 3.26121H75.6813C77.2743 3.29604 78.8424 3.66494 80.2839 4.34405C81.7242 4.99793 83.0262 5.9213 84.1197 7.0644L84.1462 10.1661V10.1987H86.838V0.858986H84.1523V2.97572C84.1523 2.9912 84.1483 3.00642 84.1408 3.01997C84.1334 3.03352 84.1226 3.04496 84.1095 3.05321C84.082 3.05091 84.0562 3.03941 84.0361 3.02058C82.8986 2.15626 81.6333 1.47445 80.2859 0.999694C78.8411 0.50416 77.3268 0.241221 75.7996 0.220703C74.0478 0.220703 72.6163 0.424627 71.4213 0.814123C70.4273 1.1449 69.5039 1.6588 68.6989 2.32928C67.8239 3.01363 67.1208 3.89275 66.6454 4.89669C66.1868 5.86457 65.9459 6.92123 65.9398 7.99226C65.9268 8.62635 66.0058 9.25897 66.1743 9.8704C66.3827 10.5472 66.6921 11.1886 67.092 11.773C67.1267 11.8281 67.1674 11.8811 67.2041 11.9341C67.2408 11.9871 67.2429 11.9851 67.2612 12.0116L67.2857 12.0442C69.0497 14.4913 72.9956 15.5599 75.8607 16.3532L75.9403 16.3735L76.5785 16.551L77.2699 16.7365C78.7673 17.1031 80.2323 17.5914 81.6501 18.1966C82.39 18.5229 83.043 19.0181 83.5568 19.6425C84.0321 20.2215 84.354 20.9109 84.4928 21.647C84.6277 22.3809 84.5722 23.137 84.3318 23.8433C84.0504 24.6567 83.5833 25.3934 82.9675 25.9947C82.2926 26.5956 81.5003 27.0497 80.6407 27.3284C79.8049 27.5981 78.9365 27.7538 78.059 27.7913C76.6552 27.8612 75.2491 27.7049 73.8949 27.3284C71.6008 26.6024 69.5064 25.2014 68.1483 23.4905C68.1028 23.4353 68.0688 23.3715 68.0484 23.3029L68.0219 20.6356V20.5989H65.3301V30.3628H68.0239V27.5078C69.1487 28.4982 70.4528 29.2638 71.8659 29.7632C73.5175 30.373 75.2588 30.7052 77.019 30.7461H77.2372C78.732 30.7461 82.2293 30.7461 84.9721 28.4234C85.7313 27.7662 86.3601 26.9721 86.8257 26.0824C87.2738 25.2237 87.5659 24.2923 87.6883 23.3314C87.8147 22.4131 87.7719 21.4793 87.5619 20.5764C87.3646 19.6977 86.9822 18.8711 86.4403 18.1518V18.1518Z" fill="white"/>
<path d="M59.8594 18.1518C58.1607 15.5905 53.964 14.214 50.954 13.4024C50.6114 13.3126 50.2566 13.225 49.8794 13.1311C46.6166 12.3256 42.5544 11.3203 42.5075 7.94128C42.5077 7.43237 42.6154 6.92924 42.8236 6.46487C43.048 5.9769 43.3605 5.53448 43.7453 5.15975C44.9689 3.95252 46.8878 3.25918 49.0351 3.25918H49.1024C50.6942 3.29378 52.2609 3.66271 53.7009 4.34201C55.1323 4.99596 56.4242 5.91958 57.5061 7.06236L57.5591 10.1641V10.1987H60.2509V0.858986H57.5734V2.97572C57.5731 2.99092 57.5693 3.00583 57.5622 3.01928C57.5551 3.03273 57.545 3.04435 57.5326 3.05321C57.5183 3.05435 57.504 3.05198 57.4908 3.04629C57.4777 3.0406 57.4661 3.03177 57.4572 3.02058C56.3197 2.15626 55.0544 1.47445 53.707 0.999694C52.2622 0.50416 50.7479 0.241221 49.2207 0.220703C47.4588 0.220703 46.0231 0.424627 44.8322 0.814123C43.8418 1.14618 42.922 1.66002 42.12 2.32928C41.2451 3.01363 40.5419 3.89275 40.0665 4.89669C39.6058 5.86689 39.3635 6.92638 39.3569 8.00042C39.3447 8.63353 39.4223 9.26517 39.5873 9.87652C39.7906 10.549 40.0915 11.188 40.4805 11.773C42.171 14.4077 46.3066 15.5395 49.3267 16.3674L49.3981 16.3858L49.9976 16.551L50.6298 16.7202L50.6889 16.7365C52.1864 17.1031 53.6513 17.5914 55.0692 18.1966C55.8119 18.5277 56.468 19.026 56.9861 19.6526C57.4629 20.2382 57.7861 20.9335 57.9262 21.6756C58.059 22.4106 58.0014 23.1674 57.759 23.8739C57.4751 24.6868 57.0051 25.4221 56.3866 26.0212C55.7161 26.6204 54.9267 27.0714 54.07 27.3447C53.2321 27.6131 52.3614 27.7654 51.4822 27.7974C51.3007 27.7974 51.1111 27.8096 50.9194 27.8096C49.6903 27.8125 48.4668 27.6458 47.2834 27.3141C47.1468 27.2713 47.0081 27.2244 46.8755 27.1754H46.8552C46.5799 27.0775 46.3046 26.9715 46.0395 26.8471C44.7086 26.264 43.4915 25.45 42.4443 24.4428L42.3913 24.3918C42.2281 24.2287 42.0629 24.0554 41.9039 23.8739L41.7815 23.7332C41.7101 23.6496 41.6408 23.568 41.5776 23.4823C41.5332 23.4275 41.5 23.3644 41.4797 23.2968L41.4532 20.6294V20.5989H38.7227V30.3628H41.443V27.5078C42.5678 28.4982 43.8719 29.2638 45.2849 29.7632C46.9366 30.373 48.6779 30.7052 50.4381 30.7461H50.6563C52.1429 30.7461 55.6239 30.7461 58.3912 28.4234C59.1504 27.7662 59.7792 26.9721 60.2448 26.0824C60.6919 25.2309 60.9853 24.3073 61.1115 23.3539C61.2379 22.4355 61.1951 21.5018 60.9851 20.5989C60.7892 19.7121 60.4053 18.8776 59.8594 18.1518V18.1518Z" fill="white"/>
<path d="M32.25 28.0339L24.8924 16.9098C26.139 16.9567 27.3796 16.716 28.5182 16.2063C30.1271 15.3906 31.42 14.3567 32.2133 12.8272C32.8579 11.5646 33.192 10.1664 33.1881 8.74874C33.1863 6.51887 32.3073 4.37921 30.741 2.79211C29.0402 1.25044 26.9174 0.5 24.248 0.5H9.99166V3.57722H13.0179V28.0706H9.72656V30.6441H19.2804V28.0706H16.2032V16.9547H21.3523L28.561 28.0706H25.286V30.6441H35.5678V28.0706H32.352C32.3333 28.0718 32.3147 28.0692 32.2971 28.0629C32.2796 28.0566 32.2635 28.0467 32.25 28.0339ZM16.2032 3.43855H24.0889C26.5116 3.43855 28.3714 4.40107 29.3135 6.0549C29.7676 6.88512 29.9984 7.81898 29.9834 8.76515C29.9684 9.71131 29.708 10.6374 29.2278 11.4528C28.2612 13.0842 27.1193 13.9855 24.5865 13.9855H16.2032V3.43855Z" fill="white"/>
<path d="M112.251 21.7321C112.251 18.0391 110.385 15.3717 107.289 14.2277C109.914 12.8492 111.072 10.5815 111.072 8.24661C111.072 2.85689 106.551 0.00195312 100.656 0.00195312C97.4376 0.026424 94.0076 1.09703 91.6645 4.38633L94.1116 5.98305C95.4228 4.21911 97.2908 2.85689 100.656 2.85689C104.938 2.85689 107.976 4.59637 107.976 7.9081C107.976 11.0812 104.93 12.8492 101.81 12.8492H97.56V15.908H102.056C106.035 15.908 109.18 18.0513 109.082 21.6975C108.859 25.572 105.446 27.6541 100.976 27.6541C98.1004 27.6541 94.9069 26.7487 92.523 24.1996L92.4007 24.1527L90.3125 26.4387L90.4104 26.4632C93.4081 29.2753 96.9706 30.7293 100.976 30.7293C107.142 30.717 112.251 27.3808 112.251 21.7321Z" fill="white"/>
<path d="M7.74504 13.9668H0V17.1297H7.74504V13.9668Z" fill="white"/>
<path d="M123.22 13.9668H115.475V17.1297H123.22V13.9668Z" fill="white"/>
</svg>
