<svg width="86" height="86" viewBox="0 0 86 86" fill="none" xmlns="http://www.w3.org/2000/svg">
<path d="M9.04792 76.9521C2.44563 70.3552 0 59.6052 0 43C0 26.3948 2.44742 15.6448 9.04792 9.04792C15.6484 2.451 26.3948 0 43 0C59.6052 0 70.3534 2.44742 76.9521 9.04792C83.5508 15.6484 86 26.3948 86 43C86 59.6052 83.5526 70.3552 76.9521 76.9521C70.3516 83.549 59.6052 86 43 86C26.3948 86 15.6448 83.5526 9.04792 76.9521Z" fill="url(#paint0_linear_988_75)"/>
<path d="M49.2653 49.6875C48.4191 48.9168 47.4287 48.321 46.3513 47.9345C45.2738 47.548 44.1306 47.3784 42.9873 47.4354C41.844 47.3775 40.7005 47.5466 39.623 47.9332C38.5454 48.3198 37.5551 48.916 36.7093 49.6875C36.0439 50.3569 35.6376 51.2407 35.5627 52.1815C35.3868 54.3646 35.4331 56.5599 35.7006 58.7337C35.9246 61.3871 36.3546 64.9257 36.9154 68.5341C37.1433 70.2028 37.4833 71.8543 37.933 73.4773C38.3358 74.459 39.0463 75.2834 39.9577 75.8269C40.8691 76.3703 41.9322 76.6033 42.9873 76.4909C44.0428 76.604 45.1064 76.3713 46.0183 75.8278C46.9301 75.2843 47.6408 74.4595 48.0434 73.4773C48.4934 71.8544 48.8328 70.2029 49.0593 68.5341C49.5725 65.2816 49.9777 62.013 50.274 58.7337C50.5412 56.56 50.5892 54.3649 50.4174 52.1815C50.3424 51.2396 49.9339 50.3553 49.2653 49.6875ZM35.9103 37.4755C35.9103 38.8777 36.3261 40.2485 37.1051 41.4143C37.8841 42.5802 38.9913 43.4889 40.2868 44.0255C41.5823 44.5621 43.0077 44.7025 44.383 44.4289C45.7582 44.1554 47.0215 43.4802 48.013 42.4887C49.0045 41.4972 49.6797 40.2339 49.9533 38.8587C50.2268 37.4834 50.0864 36.0579 49.5498 34.7625C49.0132 33.467 48.1045 32.3598 46.9387 31.5807C45.7728 30.8017 44.4021 30.3859 42.9999 30.3859C41.1196 30.3859 39.3163 31.1329 37.9868 32.4624C36.6572 33.792 35.9103 35.5953 35.9103 37.4755V37.4755ZM42.9103 9.50405C35.7268 9.52511 28.782 12.0846 23.3029 16.7303C17.8238 21.376 14.1631 27.8088 12.9677 34.8921C11.7723 41.9755 13.1191 49.2534 16.7701 55.4399C20.421 61.6264 26.1413 66.3233 32.92 68.7007C32.9863 68.7238 33.0575 68.7294 33.1267 68.7171C33.1959 68.7048 33.2608 68.6749 33.3151 68.6303C33.3694 68.5857 33.4113 68.5279 33.4369 68.4624C33.4625 68.3969 33.4708 68.326 33.461 68.2564C33.3034 67.2172 33.1565 66.1673 33.0203 65.1353C32.998 64.9565 32.9296 64.7865 32.8219 64.6421C32.7141 64.4976 32.5708 64.3836 32.4058 64.3111C26.8076 61.8758 22.2193 57.5863 19.413 52.1646C16.6066 46.743 15.7535 40.5201 16.9973 34.5432C18.2411 28.5663 21.5058 23.2003 26.242 19.3483C30.9782 15.4962 36.8967 13.3932 43.0017 13.3932C49.1066 13.3932 55.0252 15.4962 59.7614 19.3483C64.4976 23.2003 67.7623 28.5663 69.006 34.5432C70.2498 40.5201 69.3967 46.743 66.5904 52.1646C63.784 57.5863 59.1957 61.8758 53.5976 64.3111C53.4326 64.3836 53.2892 64.4976 53.1815 64.6421C53.0737 64.7865 53.0054 64.9565 52.983 65.1353C52.8469 66.1637 52.7 67.2118 52.5405 68.2528C52.5301 68.3227 52.538 68.3942 52.5635 68.4601C52.589 68.5261 52.6311 68.5843 52.6858 68.6291C52.7405 68.6738 52.8059 68.7037 52.8756 68.7156C52.9453 68.7275 53.0169 68.7212 53.0834 68.6971C59.8765 66.3146 65.606 61.6028 69.2554 55.3976C72.9048 49.1924 74.2381 41.895 73.0188 34.8002C71.7995 27.7055 68.1064 21.272 62.5947 16.6412C57.083 12.0105 50.1091 9.48188 42.9103 9.50405V9.50405ZM42.3567 23.479C45.719 23.3447 49.042 24.2416 51.8801 26.0495C54.7182 27.8575 56.9357 30.49 58.2351 33.594C59.5345 36.698 59.8538 40.1251 59.1501 43.4157C58.4464 46.7063 56.7534 49.7031 54.2981 52.0042C54.1637 52.1305 54.0583 52.2845 53.9893 52.4556C53.9203 52.6267 53.8894 52.8107 53.8986 52.995C53.9538 54.1533 53.9418 55.3139 53.8628 56.4708C53.8584 56.5457 53.875 56.6204 53.9107 56.6864C53.9465 56.7525 54 56.8072 54.0652 56.8444C54.1304 56.8817 54.2047 56.9 54.2797 56.8973C54.3547 56.8946 54.4275 56.871 54.4898 56.8291C58.0948 54.374 60.8181 50.8282 62.2601 46.7118C63.7022 42.5955 63.787 38.1254 62.5023 33.9573C61.2176 29.7892 58.631 26.1425 55.1218 23.5523C51.6126 20.962 47.3657 19.5646 43.0041 19.5649C38.6425 19.5652 34.3958 20.9634 30.8871 23.5542C27.3783 26.145 24.7922 29.792 23.5082 33.9603C22.2241 38.1286 22.3097 42.5987 23.7524 46.7148C25.1951 50.8309 27.9189 54.3763 31.5243 56.8309C31.586 56.8724 31.6581 56.8959 31.7325 56.8986C31.8068 56.9013 31.8805 56.8832 31.9451 56.8463C32.0097 56.8094 32.0628 56.7553 32.0983 56.6899C32.1337 56.6245 32.1503 56.5505 32.146 56.4762C32.0637 55.3176 32.0523 54.155 32.1119 52.995C32.1221 52.8108 32.0918 52.6266 32.023 52.4554C31.9543 52.2842 31.8489 52.1302 31.7142 52.0042C29.3414 49.7783 27.6795 46.9007 26.9375 43.7331C26.1954 40.5654 26.4063 37.2491 27.5436 34.201C28.6809 31.1528 30.6939 28.5089 33.3295 26.6015C35.9651 24.6941 39.1058 23.6084 42.3567 23.4808V23.479Z" fill="white"/>
<defs>
<linearGradient id="paint0_linear_988_75" x1="43" y1="0" x2="43" y2="86" gradientUnits="userSpaceOnUse">
<stop stop-color="#F452FF"/>
<stop offset="1" stop-color="#832BC1"/>
</linearGradient>
</defs>
</svg>
