<svg width="86" height="86" viewBox="0 0 86 86" fill="none" xmlns="http://www.w3.org/2000/svg">
<path d="M9.04792 76.9521C2.44563 70.3552 0 59.6052 0 43C0 26.3948 2.44742 15.6448 9.04792 9.04792C15.6484 2.451 26.3948 0 43 0C59.6052 0 70.3534 2.44742 76.9521 9.04792C83.5508 15.6484 86 26.3948 86 43C86 59.6052 83.5526 70.3552 76.9521 76.9521C70.3516 83.549 59.6052 86 43 86C26.3948 86 15.6448 83.5526 9.04792 76.9521Z" fill="url(#paint0_linear_987_57)"/>
<path d="M50.1553 31.8744V50.316C50.1553 51.0288 49.8721 51.7124 49.3681 52.2164C48.8641 52.7204 48.1805 53.0035 47.4678 53.0035C46.755 53.0035 46.0714 52.7204 45.5674 52.2164C45.0634 51.7124 44.7803 51.0288 44.7803 50.316V45.113C44.6806 44.71 44.4467 44.353 44.1171 44.1006C43.7875 43.8483 43.3818 43.7157 42.9667 43.7247C42.5517 43.7336 42.1521 43.8836 41.8337 44.15C41.5153 44.4163 41.297 44.7831 41.2148 45.1901H41.2077V49.9917C41.2077 50.7045 40.9245 51.3881 40.4205 51.8921C39.9165 52.3961 39.233 52.6792 38.5202 52.6792C37.8074 52.6792 37.1238 52.3961 36.6198 51.8921C36.1158 51.3881 35.8327 50.7045 35.8327 49.9917V43.4701C35.7477 43.0576 35.5231 42.6872 35.1967 42.4212C34.8703 42.1551 34.4621 42.0099 34.041 42.0099C33.6199 42.0099 33.2118 42.1551 32.8854 42.4212C32.559 42.6872 32.3343 43.0576 32.2493 43.4701V56.4131C32.2493 57.1258 31.9662 57.8094 31.4622 58.3134C30.9582 58.8174 30.2746 59.1006 29.5618 59.1006C28.8491 59.1006 28.1655 58.8174 27.6615 58.3134C27.1575 57.8094 26.8743 57.1258 26.8743 56.4131V46.9083C26.8264 46.4789 26.6119 46.0854 26.2768 45.8127C25.9417 45.5399 25.5129 45.4096 25.0827 45.4499C24.6522 45.4096 24.2232 45.5402 23.888 45.8133C23.5529 46.0865 23.3385 46.4803 23.291 46.9101V47.607C23.291 48.3198 23.0079 49.0034 22.5039 49.5074C21.9999 50.0114 21.3163 50.2945 20.6035 50.2945C19.8907 50.2945 19.2072 50.0114 18.7032 49.5074C18.1992 49.0034 17.916 48.3198 17.916 47.607V39.3026C17.916 38.5899 18.1992 37.9063 18.7032 37.4023C19.2072 36.8983 19.8907 36.6151 20.6035 36.6151C21.3163 36.6151 21.9999 36.8983 22.5039 37.4023C23.0079 37.9063 23.291 38.5899 23.291 39.3026V40.0014C23.3389 40.4308 23.5535 40.8242 23.8886 41.097C24.2237 41.3698 24.6525 41.5 25.0827 41.4598C25.5132 41.5 25.9422 41.3695 26.2773 41.0964C26.6125 40.8232 26.8269 40.4293 26.8743 39.9996V34.0154C26.8743 33.3027 27.1575 32.6191 27.6615 32.1151C28.1655 31.6111 28.8491 31.3279 29.5618 31.3279C30.2746 31.3279 30.9582 31.6111 31.4622 32.1151C31.9662 32.6191 32.2493 33.3027 32.2493 34.0154V36.5453C32.3343 36.9577 32.559 37.3282 32.8854 37.5942C33.2118 37.8602 33.6199 38.0055 34.041 38.0055C34.4621 38.0055 34.8703 37.8602 35.1967 37.5942C35.5231 37.3282 35.7477 36.9577 35.8327 36.5453V29.5703C35.8327 28.8575 36.1158 28.174 36.6198 27.67C37.1238 27.166 37.8074 26.8828 38.5202 26.8828C39.233 26.8828 39.9165 27.166 40.4205 27.67C40.9245 28.174 41.2077 28.8575 41.2077 29.5703V38.2796H41.2148C41.297 38.6865 41.5153 39.0533 41.8337 39.3197C42.1521 39.586 42.5517 39.736 42.9667 39.745C43.3818 39.754 43.7875 39.6214 44.1171 39.369C44.4467 39.1167 44.6806 38.7596 44.7803 38.3566V31.8744C44.7803 31.1616 45.0634 30.4781 45.5674 29.974C46.0714 29.47 46.755 29.1869 47.4678 29.1869C48.1805 29.1869 48.8641 29.47 49.3681 29.974C49.8721 30.4781 50.1553 31.1616 50.1553 31.8744ZM56.4369 36.3822C56.0867 36.3794 55.7395 36.4455 55.415 36.5769C55.0904 36.7083 54.7949 36.9023 54.5454 37.1479C54.2958 37.3934 54.0971 37.6857 53.9605 38.0081C53.8239 38.3305 53.7522 38.6766 53.7494 39.0267V49.5689C53.7494 50.2817 54.0325 50.9652 54.5365 51.4692C55.0405 51.9732 55.7241 52.2564 56.4369 52.2564C57.1496 52.2564 57.8332 51.9732 58.3372 51.4692C58.8412 50.9652 59.1244 50.2817 59.1244 49.5689V39.0267C59.1215 38.6766 59.0498 38.3305 58.9132 38.0081C58.7766 37.6857 58.5779 37.3934 58.3283 37.1479C58.0788 36.9023 57.7833 36.7083 57.4587 36.5769C57.1342 36.4455 56.787 36.3794 56.4369 36.3822ZM65.3952 41.7357C64.6884 41.73 64.0083 42.0052 63.5043 42.5007C63.0004 42.9963 62.7138 43.6717 62.7077 44.3784V47.0068C62.7077 47.7196 62.9908 48.4032 63.4948 48.9072C63.9988 49.4112 64.6824 49.6943 65.3952 49.6943C66.108 49.6943 66.7915 49.4112 67.2955 48.9072C67.7995 48.4032 68.0827 47.7196 68.0827 47.0068V44.3784C68.0765 43.6717 67.79 42.9963 67.286 42.5007C66.7821 42.0052 66.102 41.73 65.3952 41.7357V41.7357Z" fill="white"/>
<defs>
<linearGradient id="paint0_linear_987_57" x1="9.04613" y1="9.04613" x2="76.9539" y2="76.9539" gradientUnits="userSpaceOnUse">
<stop stop-color="#FF9E57"/>
<stop offset="1" stop-color="#FF5321"/>
</linearGradient>
</defs>
</svg>
