<svg width="86" height="86" viewBox="0 0 86 86" fill="none" xmlns="http://www.w3.org/2000/svg">
<g clip-path="url(#clip0_989_105)">
<path d="M9.04792 76.9521C2.44563 70.3552 0 59.6052 0 43C0 26.3948 2.44742 15.6448 9.04792 9.04792C15.6484 2.451 26.3948 0 43 0C59.6052 0 70.3534 2.44742 76.9521 9.04792C83.5508 15.6484 86 26.3948 86 43C86 59.6052 83.5526 70.3552 76.9521 76.9521C70.3516 83.549 59.6052 86 43 86C26.3948 86 15.6448 83.5526 9.04792 76.9521Z" fill="white" stroke="#E5E5E5"/>
<path d="M43 77C61.7777 77 77 61.7777 77 43C77 24.2223 61.7777 9 43 9C24.2223 9 9 24.2223 9 43C9 61.7777 24.2223 77 43 77Z" fill="#FB355E"/>
<path fill-rule="evenodd" clip-rule="evenodd" d="M61.683 37.059C61.683 37.059 59.296 34.647 50.943 34.647H42.59C39.68 34.647 37.074 33.329 35.324 31.252L35.114 30.996C33.7694 29.287 33.0404 27.1745 33.045 25L52.138 25C57.41 25 61.684 29.32 61.684 34.647L61.683 37.059ZM24 47.46C24 42.131 28.274 37.812 33.546 37.812H52.64C52.64 40.198 51.78 42.381 50.36 44.065C48.61 46.141 46.005 47.459 43.094 47.459H34.74C26.665 47.459 24.166 49.713 24.008 49.863L24 49.87V47.46ZM28.522 50.624C26.025 50.624 24 52.818 24 55.524C24 58.229 26.025 60.422 28.522 60.422C31.019 60.422 33.044 58.229 33.044 55.523C33.044 52.818 31.019 50.624 28.522 50.624" fill="white"/>
</g>
<defs>
<clipPath id="clip0_989_105">
<rect width="86" height="86" fill="white"/>
</clipPath>
</defs>
</svg>
