<svg width="86" height="86" viewBox="0 0 86 86" fill="none" xmlns="http://www.w3.org/2000/svg">
<g clip-path="url(#clip0_989_91)">
<path d="M9.04792 76.9521C2.44563 70.3552 0 59.6052 0 43C0 26.3948 2.44742 15.6448 9.04792 9.04792C15.6484 2.451 26.3948 0 43 0C59.6052 0 70.3534 2.44742 76.9521 9.04792C83.5508 15.6484 86 26.3948 86 43C86 59.6052 83.5526 70.3552 76.9521 76.9521C70.3516 83.549 59.6052 86 43 86C26.3948 86 15.6448 83.5526 9.04792 76.9521Z" fill="white" stroke="#E5E5E5" stroke-width="1.79167" stroke-miterlimit="10"/>
<path d="M43 80.625C63.7797 80.625 80.625 63.7797 80.625 43C80.625 22.2203 63.7797 5.375 43 5.375C22.2203 5.375 5.375 22.2203 5.375 43C5.375 63.7797 22.2203 80.625 43 80.625Z" fill="#BD1C24"/>
<path d="M61.9834 48.1276C61.0836 51.4565 59.3242 54.4903 56.8818 56.9246C54.4394 59.359 51.3998 61.1083 48.0679 61.9971C44.736 62.8859 41.229 62.8829 37.8986 61.9885C34.5682 61.094 31.5316 59.3396 29.0933 56.9011C26.655 54.4626 24.9008 51.4259 24.0066 48.0954C23.1124 44.765 23.1097 41.258 23.9988 37.9262C24.8878 34.5943 26.6374 31.5549 29.0719 29.1126C31.5064 26.6704 34.5403 24.9113 37.8693 24.0117" stroke="white" stroke-width="10.75" stroke-miterlimit="10" stroke-linecap="round"/>
<path d="M47.5137 31.5607C50.5963 32.9296 53.0506 35.4088 54.3883 38.5052M50.2675 16.6289C54.7382 18.0621 58.7999 20.5467 62.1116 23.8744C65.4234 27.2021 67.8886 31.2756 69.3003 35.7532L50.2675 16.6289ZM48.8986 23.9855C51.8708 25.1071 54.5603 26.868 56.777 29.1435C58.9937 31.419 60.6835 34.1537 61.727 37.1542L48.8986 23.9855Z" stroke="white" stroke-width="4.47917" stroke-miterlimit="10" stroke-linecap="round"/>
</g>
<defs>
<clipPath id="clip0_989_91">
<rect width="86" height="86" fill="white"/>
</clipPath>
</defs>
</svg>
