<svg width="86" height="86" viewBox="0 0 86 86" fill="none" xmlns="http://www.w3.org/2000/svg">
<g clip-path="url(#clip0_989_113)">
<path fill-rule="evenodd" clip-rule="evenodd" d="M8.95833 77.0417C2.32917 70.4125 0 59.6625 0 43C0 26.3375 2.50833 15.5875 8.95833 8.95833C15.4083 2.32917 26.3375 0 43 0C59.6625 0 70.4125 2.50833 77.0417 8.95833C83.6708 15.5875 86 26.3375 86 43C86 59.6625 83.4917 70.4125 77.0417 77.0417C70.4125 83.6708 59.6625 86 43 86C26.3375 86 15.5875 83.4917 8.95833 77.0417Z" fill="#FF7E00"/>
<path d="M77.0427 77.0408C83.3136 70.77 85.8219 60.7366 86.0011 45.5075L63.2469 22.7533C57.8774 17.3838 50.5947 14.3672 43.0011 14.3672C35.4074 14.3672 28.1248 17.3838 22.7552 22.7533C17.3857 28.1228 14.3691 35.4055 14.3691 42.9991C14.3691 50.5928 17.3857 57.8754 22.7552 63.245L45.5094 85.9991C60.7386 85.82 70.7719 83.1325 77.0427 77.0408Z" fill="url(#paint0_linear_989_113)"/>
<path d="M43.0008 14.3321C36.6058 14.3237 30.3921 16.4567 25.3504 20.391C20.3088 24.3252 16.7296 29.8342 15.1834 36.0395C13.6372 42.2448 14.2132 48.7891 16.8194 54.629C19.4256 60.4689 23.912 65.268 29.5633 68.2612V42.9987C29.5551 39.9088 30.6239 36.9127 32.5859 34.5256C34.5478 32.1386 37.2803 30.5098 40.3133 29.9196V34.5779C38.2705 35.226 36.5265 36.5827 35.3957 38.4032C34.2649 40.2237 33.8216 42.3883 34.1459 44.5067C34.4701 46.6252 35.5406 48.5581 37.1641 49.957C38.7877 51.3559 40.8577 52.1288 43.0008 52.1362C44.9048 52.1008 46.7516 51.4799 48.2903 50.3579C49.829 49.2359 50.9849 47.6674 51.6008 45.8654H56.2591C55.643 48.8857 54.0071 51.6023 51.6258 53.5596C49.2444 55.5169 46.2624 56.5958 43.18 56.6154C39.8736 56.6387 36.6781 55.4244 34.2216 53.2112V70.4112C37.1186 71.337 40.1387 71.8202 43.18 71.8446C48.9414 71.8599 54.5691 70.109 59.3049 66.8279V71.6654H71.8466V42.9987C71.7536 35.3938 68.679 28.1293 63.2843 22.7681C57.8897 17.407 50.6062 14.3777 43.0008 14.3321V14.3321ZM43.0008 48.3737C41.9377 48.3737 40.8985 48.0585 40.0146 47.4679C39.1307 46.8773 38.4418 46.0378 38.0349 45.0556C37.6281 44.0735 37.5217 42.9928 37.7291 41.9501C37.9365 40.9075 38.4484 39.9497 39.2001 39.198C39.9518 38.4463 40.9095 37.9344 41.9522 37.727C42.9948 37.5196 44.0756 37.626 45.0577 38.0329C46.0399 38.4397 46.8793 39.1286 47.4699 40.0125C48.0605 40.8964 48.3758 41.9356 48.3758 42.9987C48.3888 43.7082 48.2586 44.4129 47.9931 45.0709C47.7276 45.7289 47.3322 46.3267 46.8304 46.8284C46.3287 47.3301 45.731 47.7255 45.073 47.9911C44.415 48.2566 43.7102 48.3867 43.0008 48.3737V48.3737ZM51.9591 42.9987C51.9708 41.8191 51.747 40.6489 51.3009 39.5568C50.8548 38.4647 50.1954 37.4725 49.3612 36.6383C48.527 35.8041 47.5348 35.1447 46.4427 34.6986C45.3506 34.2525 44.1804 34.0288 43.0008 34.0404V29.5612C46.5567 29.5868 49.9597 31.0108 52.4742 33.5253C54.9887 36.0398 56.4127 39.4428 56.4383 42.9987H51.9591ZM60.0216 42.9987C59.9934 38.4932 58.1911 34.1803 55.0052 30.9943C51.8192 27.8084 47.5063 26.0061 43.0008 25.9779V21.4987C48.6978 21.5154 54.1567 23.7859 58.1851 27.8144C62.2136 31.8428 64.4841 37.3017 64.5008 42.9987H60.0216Z" fill="white"/>
</g>
<defs>
<linearGradient id="paint0_linear_989_113" x1="22.7552" y1="22.7533" x2="76.9788" y2="76.9768" gradientUnits="userSpaceOnUse">
<stop stop-color="#DF4123"/>
<stop offset="1" stop-color="#F17A2B"/>
</linearGradient>
<clipPath id="clip0_989_113">
<rect width="86" height="86" fill="white"/>
</clipPath>
</defs>
</svg>
