<svg width="86" height="86" viewBox="0 0 86 86" fill="none" xmlns="http://www.w3.org/2000/svg">
<path d="M9.04792 76.9521C2.44563 70.3552 0 59.6052 0 43C0 26.3948 2.44742 15.6448 9.04792 9.04792C15.6484 2.451 26.3948 0 43 0C59.6052 0 70.3534 2.44742 76.9521 9.04792C83.5508 15.6484 86 26.3948 86 43C86 59.6052 83.5526 70.3552 76.9521 76.9521C70.3516 83.549 59.6052 86 43 86C26.3948 86 15.6448 83.5526 9.04792 76.9521Z" fill="#CF2327"/>
<path d="M52.6972 36.1431C53.2848 35.9446 53.901 35.8441 54.5211 35.8457C55.0085 35.9532 55.1303 36.557 55.0694 36.9816C55.0909 38.8682 55.0694 40.7549 55.0801 42.6433C55.123 42.8956 55.1082 43.1543 55.0369 43.4C54.9655 43.6458 54.8394 43.8722 54.6681 44.0623C54.1897 44.6338 53.3781 44.5657 52.7241 44.7198C52.6578 41.8621 52.7026 39.0026 52.6972 36.1431V36.1431ZM30.9159 29.1664C31.675 28.8776 32.4947 28.7858 33.2989 28.8994C33.5096 29.4249 33.592 29.993 33.5389 30.5567C33.5389 32.0599 33.5658 33.5613 33.5246 35.0645C33.5128 35.3471 33.4265 35.6214 33.2745 35.8599C33.1226 36.0984 32.9103 36.2925 32.6592 36.4226C32.1113 36.6184 31.5445 36.7566 30.9679 36.8347C30.8765 34.278 30.9625 31.7213 30.9141 29.1664H30.9159ZM32.5105 24.0171C30.2188 24.6297 27.8824 25.0611 25.523 25.3071C25.4836 26.2089 25.4699 27.1119 25.4818 28.0161C25.5087 37.3543 25.4567 46.6924 25.5069 56.0324C27.3431 55.8757 29.1624 55.561 30.9446 55.0918C30.9207 50.7237 30.9189 46.355 30.9392 41.9857C31.6021 41.7646 32.294 41.6426 32.9925 41.6238C33.4959 41.8317 33.5479 42.4534 33.5264 42.9246C33.5766 46.1317 33.4924 49.3423 33.5497 52.5512C33.5435 53.2072 33.6939 53.8553 33.9886 54.4414C35.8013 53.9328 37.6634 53.6205 39.5428 53.5097C39.2782 52.8772 39.1289 52.2025 39.1021 51.5174C39.0573 48.1061 39.1146 44.6929 39.0877 41.2816C39.1373 40.4167 38.9858 39.552 38.6452 38.7554C38.2407 38.056 37.5985 37.5251 36.8356 37.2593C37.4066 36.8606 37.9017 36.3631 38.2976 35.7902C39.0459 34.5144 39.3661 33.0327 39.2114 31.5618C39.3325 29.5923 39.1952 27.6154 38.8029 25.6816C38.6637 25.2206 38.4184 24.7986 38.0868 24.4495C37.7551 24.1004 37.3462 23.8339 36.8929 23.6713C35.4281 23.3799 33.9111 23.5003 32.5105 24.0189V24.0171ZM55.2109 30.7807C52.5946 31.4674 49.9401 31.9998 47.2613 32.3752C47.2362 42.577 47.2577 52.7823 47.2524 62.9841L47.2434 63.0844C49.0655 62.8855 50.8572 62.4932 52.656 62.1527C52.7599 58.0229 52.6381 53.8896 52.7098 49.7562C54.067 49.5409 55.4015 49.2008 56.6962 48.7403C57.7564 48.3399 58.6849 47.6533 59.3783 46.7569C60.0832 45.7244 60.4978 44.5215 60.5788 43.2739C60.6934 41.1956 60.5949 39.1173 60.6325 37.0372C60.7246 35.6251 60.6056 34.2073 60.2796 32.8303C60.0576 32.0732 59.5729 31.4202 58.9125 30.9885C57.7379 30.5016 56.4327 30.4283 55.2109 30.7807V30.7807ZM40.2953 14.6109C42.6843 14.4706 45.0708 14.9242 47.2416 15.9313C47.2739 18.703 47.2344 21.4765 47.2559 24.25C52.0522 23.7304 56.6299 21.9244 61.4603 21.636C63.9883 21.4173 66.5282 21.8904 68.8079 23.0048C68.7721 38.6938 68.7703 54.3829 68.8025 70.0719C65.9706 68.7962 62.8278 68.3753 59.76 68.8607C55.3274 69.4609 51.0668 71.0555 46.5859 71.3565C44.0194 71.5788 41.4393 71.128 39.1003 70.0486C39.068 67.2769 39.1056 64.5052 39.0877 61.7317C35.0386 62.1384 31.1596 63.4929 27.1409 64.0806C24.5244 64.5885 21.8263 64.4898 19.254 63.7921C18.5588 63.6183 17.912 63.3048 17.2401 63.0665C17.2163 62.1277 17.2061 61.19 17.2097 60.2536C17.2294 45.5028 17.1864 30.7502 17.2312 15.9994C17.654 16.1344 18.0709 16.2879 18.4818 16.4599C20.7216 17.1997 23.0908 17.4651 25.4388 17.2392C30.4555 16.7501 35.2339 14.79 40.2953 14.6109V14.6109Z" fill="white"/>
<path d="M39.0859 61.7336C40.7997 61.661 42.5158 61.7994 44.1958 62.1457C45.235 62.3766 46.2536 62.6918 47.2416 63.0881L47.2326 63.2028C47.1684 63.5267 47.0372 63.8337 46.8474 64.104C45.8683 65.3998 44.6774 66.521 43.325 67.4204C41.978 68.3927 40.5658 69.2715 39.0985 70.0505C39.068 67.3147 39.0841 64.4713 39.0859 61.7336V61.7336Z" fill="#D2D3D5"/>
</svg>
