<svg width="86" height="86" viewBox="0 0 86 86" fill="none" xmlns="http://www.w3.org/2000/svg">
<path d="M9.04792 76.9521C2.44563 70.3552 0 59.6052 0 43C0 26.3948 2.44742 15.6448 9.04792 9.04792C15.6484 2.451 26.3948 0 43 0C59.6052 0 70.3534 2.44742 76.9521 9.04792C83.5508 15.6484 86 26.3948 86 43C86 59.6052 83.5526 70.3552 76.9521 76.9521C70.3516 83.549 59.6052 86 43 86C26.3948 86 15.6448 83.5526 9.04792 76.9521Z" fill="url(#paint0_linear_988_84)"/>
<path d="M16.125 62.7083C16.125 58.7487 16.1787 55.5417 23.2917 55.5417C30.4046 55.5417 30.4583 58.7487 30.4583 62.7083C30.4583 66.6679 30.4046 69.875 23.2917 69.875C16.1787 69.875 16.125 66.6679 16.125 62.7083ZM21.5 16.125C16.1662 16.125 16.125 18.5312 16.125 21.5C16.125 24.4688 16.1662 26.875 21.5 26.875C44.0033 26.875 59.125 41.9967 59.125 64.5C59.125 67.4688 59.1662 69.875 64.5 69.875C69.8338 69.875 69.875 67.4688 69.875 64.5C69.875 36.0179 49.9839 16.125 21.5 16.125ZM21.5 34.0417C16.1662 34.0417 16.125 36.4479 16.125 39.4167C16.125 42.3855 16.1662 44.7917 21.5 44.7917C27.4268 44.7917 41.2083 46.7123 41.2083 64.5C41.2083 67.4688 41.2495 69.875 46.5833 69.875C51.9171 69.875 51.9583 67.4688 51.9583 64.5C51.9583 42.0182 35.5502 34.0417 21.5 34.0417Z" fill="white"/>
<defs>
<linearGradient id="paint0_linear_988_84" x1="43" y1="0" x2="43" y2="86" gradientUnits="userSpaceOnUse">
<stop stop-color="#FA9C39"/>
<stop offset="1" stop-color="#E26C2D"/>
</linearGradient>
</defs>
</svg>
