<svg width="86" height="86" viewBox="0 0 86 86" fill="none" xmlns="http://www.w3.org/2000/svg">
<path d="M9.04792 76.9521C2.44563 70.3552 0 59.6052 0 43C0 26.3948 2.44742 15.6448 9.04792 9.04792C15.6484 2.451 26.3948 0 43 0C59.6052 0 70.3534 2.44742 76.9521 9.04792C83.5508 15.6484 86 26.3948 86 43C86 59.6052 83.5526 70.3552 76.9521 76.9521C70.3516 83.549 59.6052 86 43 86C26.3948 86 15.6448 83.5526 9.04792 76.9521Z" fill="#444444"/>
<path d="M43.0007 77.0404C61.8013 77.0404 77.0423 61.7994 77.0423 42.9987C77.0423 24.198 61.8013 8.95703 43.0007 8.95703C24.2 8.95703 8.95898 24.198 8.95898 42.9987C8.95898 61.7994 24.2 77.0404 43.0007 77.0404Z" fill="#1ED760"/>
<path d="M56.7994 56.9508C48.3159 51.7675 37.7235 50.5778 25.3145 53.414" stroke="#444444" stroke-width="4.24625" stroke-linecap="round"/>
<path d="M60.5161 47.4012C50.6888 41.3597 36.0276 39.6379 24.4355 43.1549" stroke="#444444" stroke-width="5.30333" stroke-linecap="round"/>
<path d="M64.763 36.3924C52.9595 29.3834 33.9159 28.7312 22.666 32.1461" stroke="#444444" stroke-width="6.36042" stroke-linecap="round"/>
</svg>
