<svg width="86" height="86" viewBox="0 0 86 86" fill="none" xmlns="http://www.w3.org/2000/svg">
<g clip-path="url(#clip0_993_119)">
<path d="M9.04792 76.9521C2.44563 70.3552 0 59.6052 0 43C0 26.3948 2.44742 15.6448 9.04792 9.04792C15.6484 2.451 26.3948 0 43 0C59.6052 0 70.3534 2.44742 76.9521 9.04792C83.5508 15.6484 86 26.3948 86 43C86 59.6052 83.5526 70.3552 76.9521 76.9521C70.3516 83.549 59.6052 86 43 86C26.3948 86 15.6448 83.5526 9.04792 76.9521Z" fill="white" stroke="#E5E5E5" stroke-width="1.79167"/>
<path d="M61.7233 20H23.5581C16.0702 20 10 26.0702 10 33.5581V52.6367C10 60.1246 16.0702 66.1948 23.5581 66.1948H61.7233C69.2112 66.1948 75.2814 60.1246 75.2814 52.6367V33.5581C75.2814 26.0702 69.2112 20 61.7233 20ZM52.554 44.0256L34.7029 52.5395C34.2273 52.7664 33.6778 52.4196 33.6778 51.8927V34.3327C33.6778 33.7983 34.2417 33.4519 34.7184 33.6935L52.5695 42.7395C53.1002 43.0085 53.091 43.7696 52.554 44.0256Z" fill="#F61C0D"/>
</g>
<defs>
<clipPath id="clip0_993_119">
<rect width="86" height="86" fill="white"/>
</clipPath>
</defs>
</svg>
